<mxfile host="app.diagrams.net" modified="2022-05-10T23:25:42.191Z" agent="5.0 (Windows NT 10.0; Win64; x64) AppleWebKit/537.36 (KHTML, like Gecko) Chrome/101.0.4951.54 Safari/537.36" etag="0P0f_0adJORL_lPB-By7" version="18.0.2" type="github">
  <diagram id="R2lEEEUBdFMjLlhIrx00" name="Page-1">
    <mxGraphModel dx="4740" dy="2620" grid="1" gridSize="3.937" guides="1" tooltips="1" connect="1" arrows="1" fold="1" page="1" pageScale="1" pageWidth="2339" pageHeight="3300" math="0" shadow="0" extFonts="Permanent Marker^https://fonts.googleapis.com/css?family=Permanent+Marker">
      <root>
        <mxCell id="0" />
        <mxCell id="1" parent="0" />
        <mxCell id="bOlvTl43doBLw3R69mOg-1" value="" style="rounded=0;whiteSpace=wrap;html=1;fillColor=none;strokeWidth=1;" parent="1" vertex="1">
          <mxGeometry x="23.999999999999993" y="23.62" width="2290" height="3250" as="geometry" />
        </mxCell>
        <mxCell id="bOlvTl43doBLw3R69mOg-2" value="" style="rounded=0;whiteSpace=wrap;html=1;fillColor=none;" parent="1" vertex="1">
          <mxGeometry x="1591.1100000000001" y="3092.86" width="728.35" height="177.165" as="geometry" />
        </mxCell>
        <mxCell id="UN5E2BRM_m0n_mUQd9ct-3" value="" style="rounded=0;whiteSpace=wrap;html=1;fillColor=none;" parent="1" vertex="1">
          <mxGeometry x="1592.0099999999998" y="3131.16" width="27.558999999999997" height="19.685" as="geometry" />
        </mxCell>
        <mxCell id="UN5E2BRM_m0n_mUQd9ct-4" value="" style="rounded=0;whiteSpace=wrap;html=1;fillColor=none;" parent="1" vertex="1">
          <mxGeometry x="1592.0000000000002" y="3151.6699999999996" width="27.558999999999997" height="19.685" as="geometry" />
        </mxCell>
        <mxCell id="UN5E2BRM_m0n_mUQd9ct-5" value="" style="rounded=0;whiteSpace=wrap;html=1;fillColor=none;" parent="1" vertex="1">
          <mxGeometry x="1592.01" y="3111.47" width="27.558999999999997" height="19.685" as="geometry" />
        </mxCell>
        <mxCell id="UN5E2BRM_m0n_mUQd9ct-9" value="" style="rounded=0;whiteSpace=wrap;html=1;fillColor=none;" parent="1" vertex="1">
          <mxGeometry x="1619.5699999999997" y="3131.16" width="39.37" height="19.685" as="geometry" />
        </mxCell>
        <mxCell id="UN5E2BRM_m0n_mUQd9ct-10" value="" style="rounded=0;whiteSpace=wrap;html=1;fillColor=none;" parent="1" vertex="1">
          <mxGeometry x="1619.5600000000002" y="3151.6699999999996" width="39.37" height="19.685" as="geometry" />
        </mxCell>
        <mxCell id="UN5E2BRM_m0n_mUQd9ct-11" value="" style="rounded=0;whiteSpace=wrap;html=1;fillColor=none;" parent="1" vertex="1">
          <mxGeometry x="1619.57" y="3111.47" width="39.37" height="19.685" as="geometry" />
        </mxCell>
        <mxCell id="UN5E2BRM_m0n_mUQd9ct-14" value="" style="rounded=0;whiteSpace=wrap;html=1;fillColor=none;" parent="1" vertex="1">
          <mxGeometry x="1658.9399999999998" y="3131.16" width="90.551" height="19.685" as="geometry" />
        </mxCell>
        <mxCell id="UN5E2BRM_m0n_mUQd9ct-15" value="" style="rounded=0;whiteSpace=wrap;html=1;fillColor=none;" parent="1" vertex="1">
          <mxGeometry x="1659.2800000000002" y="3130.9399999999996" width="90.551" height="19.685" as="geometry" />
        </mxCell>
        <mxCell id="UN5E2BRM_m0n_mUQd9ct-16" value="" style="rounded=0;whiteSpace=wrap;html=1;fillColor=none;" parent="1" vertex="1">
          <mxGeometry x="1658.94" y="3111.47" width="90.551" height="19.685" as="geometry" />
        </mxCell>
        <mxCell id="UN5E2BRM_m0n_mUQd9ct-19" value="" style="rounded=0;whiteSpace=wrap;html=1;fillColor=none;" parent="1" vertex="1">
          <mxGeometry x="1749.4899999999998" y="3131.16" width="59.055" height="19.685" as="geometry" />
        </mxCell>
        <mxCell id="UN5E2BRM_m0n_mUQd9ct-20" value="" style="rounded=0;whiteSpace=wrap;html=1;fillColor=none;" parent="1" vertex="1">
          <mxGeometry x="1749.14" y="3151.67" width="59.055" height="19.685" as="geometry" />
        </mxCell>
        <mxCell id="UN5E2BRM_m0n_mUQd9ct-21" value="" style="rounded=0;whiteSpace=wrap;html=1;fillColor=none;" parent="1" vertex="1">
          <mxGeometry x="1749.49" y="3111.47" width="59.055" height="19.685" as="geometry" />
        </mxCell>
        <mxCell id="UN5E2BRM_m0n_mUQd9ct-24" value="" style="rounded=0;whiteSpace=wrap;html=1;fillColor=none;" parent="1" vertex="1">
          <mxGeometry x="1808.2099999999998" y="3132" width="39.37" height="19.685" as="geometry" />
        </mxCell>
        <mxCell id="UN5E2BRM_m0n_mUQd9ct-25" value="" style="rounded=0;whiteSpace=wrap;html=1;fillColor=none;" parent="1" vertex="1">
          <mxGeometry x="1808.2" y="3151.67" width="39.37" height="19.685" as="geometry" />
        </mxCell>
        <mxCell id="UN5E2BRM_m0n_mUQd9ct-26" value="" style="rounded=0;whiteSpace=wrap;html=1;fillColor=none;" parent="1" vertex="1">
          <mxGeometry x="1808.19" y="3111.47" width="39.37" height="19.685" as="geometry" />
        </mxCell>
        <mxCell id="UN5E2BRM_m0n_mUQd9ct-27" value="" style="rounded=0;whiteSpace=wrap;html=1;fillColor=none;" parent="1" vertex="1">
          <mxGeometry x="1847.56" y="3092.86" width="472.43" height="59.055" as="geometry" />
        </mxCell>
        <mxCell id="UN5E2BRM_m0n_mUQd9ct-28" value="Изм." style="text;html=1;strokeColor=none;fillColor=none;align=center;verticalAlign=middle;whiteSpace=wrap;rounded=0;fontFamily=Times New Roman;fontSize=10;" parent="1" vertex="1">
          <mxGeometry x="1591.11" y="3151.66" width="27.558999999999997" height="19.685" as="geometry" />
        </mxCell>
        <mxCell id="UN5E2BRM_m0n_mUQd9ct-29" value="Лист" style="text;html=1;strokeColor=none;fillColor=none;align=center;verticalAlign=middle;whiteSpace=wrap;rounded=0;fontFamily=Times New Roman;fontSize=10;" parent="1" vertex="1">
          <mxGeometry x="1619.9099999999999" y="3150.85" width="39.37" height="19.685" as="geometry" />
        </mxCell>
        <mxCell id="UN5E2BRM_m0n_mUQd9ct-30" value="№ докум." style="text;html=1;strokeColor=none;fillColor=none;align=center;verticalAlign=middle;whiteSpace=wrap;rounded=0;fontFamily=Times New Roman;fontSize=10;" parent="1" vertex="1">
          <mxGeometry x="1659.2799999999997" y="3151.66" width="90.551" height="19.68" as="geometry" />
        </mxCell>
        <mxCell id="UN5E2BRM_m0n_mUQd9ct-31" value="Подп" style="text;html=1;strokeColor=none;fillColor=none;align=center;verticalAlign=middle;whiteSpace=wrap;rounded=0;fontFamily=Times New Roman;fontSize=10;" parent="1" vertex="1">
          <mxGeometry x="1748.5900000000001" y="3151.93" width="59.055" height="19.68" as="geometry" />
        </mxCell>
        <mxCell id="UN5E2BRM_m0n_mUQd9ct-32" value="Дата" style="text;html=1;strokeColor=none;fillColor=none;align=center;verticalAlign=middle;whiteSpace=wrap;rounded=0;fontFamily=Times New Roman;fontSize=10;" parent="1" vertex="1">
          <mxGeometry x="1808.1899999999998" y="3151.93" width="39.37" height="19.685" as="geometry" />
        </mxCell>
        <mxCell id="UN5E2BRM_m0n_mUQd9ct-34" value="" style="rounded=0;whiteSpace=wrap;html=1;fillColor=none;" parent="1" vertex="1">
          <mxGeometry x="1592" y="3171.6" width="66.929" height="19.68" as="geometry" />
        </mxCell>
        <mxCell id="UN5E2BRM_m0n_mUQd9ct-35" value="" style="rounded=0;whiteSpace=wrap;html=1;fillColor=none;" parent="1" vertex="1">
          <mxGeometry x="1592" y="3191.28" width="66.929" height="19.68" as="geometry" />
        </mxCell>
        <mxCell id="UN5E2BRM_m0n_mUQd9ct-36" value="" style="rounded=0;whiteSpace=wrap;html=1;fillColor=none;" parent="1" vertex="1">
          <mxGeometry x="1592" y="3210.96" width="66.929" height="19.68" as="geometry" />
        </mxCell>
        <mxCell id="UN5E2BRM_m0n_mUQd9ct-37" value="" style="rounded=0;whiteSpace=wrap;html=1;fillColor=none;" parent="1" vertex="1">
          <mxGeometry x="1592" y="3230.64" width="66.929" height="19.68" as="geometry" />
        </mxCell>
        <mxCell id="UN5E2BRM_m0n_mUQd9ct-38" value="" style="rounded=0;whiteSpace=wrap;html=1;fillColor=none;" parent="1" vertex="1">
          <mxGeometry x="1592" y="3250.32" width="66.929" height="19.68" as="geometry" />
        </mxCell>
        <mxCell id="UN5E2BRM_m0n_mUQd9ct-39" value="" style="rounded=0;whiteSpace=wrap;html=1;fillColor=none;" parent="1" vertex="1">
          <mxGeometry x="1658.6" y="3151.6699999999996" width="90.551" height="19.68" as="geometry" />
        </mxCell>
        <mxCell id="UN5E2BRM_m0n_mUQd9ct-42" value="" style="rounded=0;whiteSpace=wrap;html=1;fillColor=none;" parent="1" vertex="1">
          <mxGeometry x="1658.59" y="3210.96" width="90.551" height="19.68" as="geometry" />
        </mxCell>
        <mxCell id="UN5E2BRM_m0n_mUQd9ct-43" value="" style="rounded=0;whiteSpace=wrap;html=1;fillColor=none;" parent="1" vertex="1">
          <mxGeometry x="1658.59" y="3230.64" width="90.551" height="19.68" as="geometry" />
        </mxCell>
        <mxCell id="UN5E2BRM_m0n_mUQd9ct-44" value="" style="rounded=0;whiteSpace=wrap;html=1;fillColor=none;" parent="1" vertex="1">
          <mxGeometry x="1658.59" y="3250.32" width="90.551" height="19.68" as="geometry" />
        </mxCell>
        <mxCell id="UN5E2BRM_m0n_mUQd9ct-45" value="" style="rounded=0;whiteSpace=wrap;html=1;fillColor=none;" parent="1" vertex="1">
          <mxGeometry x="1749.1499999999999" y="3171.61" width="59.055" height="19.68" as="geometry" />
        </mxCell>
        <mxCell id="UN5E2BRM_m0n_mUQd9ct-46" value="" style="rounded=0;whiteSpace=wrap;html=1;fillColor=none;" parent="1" vertex="1">
          <mxGeometry x="1749.1399999999999" y="3191.2799999999997" width="59.055" height="19.68" as="geometry" />
        </mxCell>
        <mxCell id="UN5E2BRM_m0n_mUQd9ct-48" value="" style="rounded=0;whiteSpace=wrap;html=1;fillColor=none;" parent="1" vertex="1">
          <mxGeometry x="1749.1399999999999" y="3210.96" width="59.055" height="19.68" as="geometry" />
        </mxCell>
        <mxCell id="UN5E2BRM_m0n_mUQd9ct-49" value="" style="rounded=0;whiteSpace=wrap;html=1;fillColor=none;" parent="1" vertex="1">
          <mxGeometry x="1749.1399999999999" y="3230.64" width="59.055" height="19.68" as="geometry" />
        </mxCell>
        <mxCell id="UN5E2BRM_m0n_mUQd9ct-50" value="" style="rounded=0;whiteSpace=wrap;html=1;fillColor=none;" parent="1" vertex="1">
          <mxGeometry x="1749.1399999999999" y="3250.32" width="59.055" height="19.68" as="geometry" />
        </mxCell>
        <mxCell id="UN5E2BRM_m0n_mUQd9ct-51" value="" style="rounded=0;whiteSpace=wrap;html=1;fillColor=none;" parent="1" vertex="1">
          <mxGeometry x="1808.1899999999998" y="3171.35" width="39.37" height="19.68" as="geometry" />
        </mxCell>
        <mxCell id="UN5E2BRM_m0n_mUQd9ct-52" value="" style="rounded=0;whiteSpace=wrap;html=1;fillColor=none;" parent="1" vertex="1">
          <mxGeometry x="1808.2" y="3191.2799999999997" width="39.37" height="19.68" as="geometry" />
        </mxCell>
        <mxCell id="UN5E2BRM_m0n_mUQd9ct-54" value="" style="rounded=0;whiteSpace=wrap;html=1;fillColor=none;" parent="1" vertex="1">
          <mxGeometry x="1808.2" y="3210.96" width="39.37" height="19.68" as="geometry" />
        </mxCell>
        <mxCell id="UN5E2BRM_m0n_mUQd9ct-55" value="" style="rounded=0;whiteSpace=wrap;html=1;fillColor=none;" parent="1" vertex="1">
          <mxGeometry x="1808.2" y="3230.64" width="39.37" height="19.68" as="geometry" />
        </mxCell>
        <mxCell id="UN5E2BRM_m0n_mUQd9ct-56" value="" style="rounded=0;whiteSpace=wrap;html=1;fillColor=none;" parent="1" vertex="1">
          <mxGeometry x="1808.2" y="3250.32" width="39.37" height="19.68" as="geometry" />
        </mxCell>
        <mxCell id="UN5E2BRM_m0n_mUQd9ct-58" value="" style="rounded=0;whiteSpace=wrap;html=1;fontFamily=Times New Roman;fontSize=10;fillColor=none;" parent="1" vertex="1">
          <mxGeometry x="2248.59" y="3151.68" width="70.866" height="19.685" as="geometry" />
        </mxCell>
        <mxCell id="UN5E2BRM_m0n_mUQd9ct-59" value="2" style="rounded=0;whiteSpace=wrap;html=1;fontFamily=Times New Roman;fontSize=10;fillColor=none;" parent="1" vertex="1">
          <mxGeometry x="2249.1400000000003" y="3170.53" width="70.866" height="39.37" as="geometry" />
        </mxCell>
        <mxCell id="UN5E2BRM_m0n_mUQd9ct-65" value="" style="rounded=0;whiteSpace=wrap;html=1;fontFamily=Times New Roman;fontSize=10;fillColor=none;" parent="1" vertex="1">
          <mxGeometry x="2182.23" y="3151.68" width="66.929" height="19.685" as="geometry" />
        </mxCell>
        <mxCell id="UN5E2BRM_m0n_mUQd9ct-66" value="2" style="rounded=0;whiteSpace=wrap;html=1;fontFamily=Times New Roman;fontSize=10;fillColor=none;" parent="1" vertex="1">
          <mxGeometry x="2182.21" y="3170.53" width="66.929" height="39.37" as="geometry" />
        </mxCell>
        <mxCell id="UN5E2BRM_m0n_mUQd9ct-68" value="" style="rounded=0;whiteSpace=wrap;html=1;fontFamily=Times New Roman;fontSize=10;fillColor=none;" parent="1" vertex="1">
          <mxGeometry x="2123.1800000000003" y="3151.92" width="59.055" height="19.685" as="geometry" />
        </mxCell>
        <mxCell id="UN5E2BRM_m0n_mUQd9ct-69" value="У" style="rounded=0;whiteSpace=wrap;html=1;fontFamily=Times New Roman;fontSize=10;fillColor=none;" parent="1" vertex="1">
          <mxGeometry x="2123.1600000000003" y="3170.5299999999997" width="59.05" height="39.37" as="geometry" />
        </mxCell>
        <mxCell id="UN5E2BRM_m0n_mUQd9ct-71" value="" style="rounded=0;whiteSpace=wrap;html=1;fontFamily=Times New Roman;fontSize=10;fillColor=none;" parent="1" vertex="1">
          <mxGeometry x="2123.14" y="3210.9700000000003" width="196.85" height="59.055" as="geometry" />
        </mxCell>
        <mxCell id="UN5E2BRM_m0n_mUQd9ct-72" value="Разраб" style="text;html=1;strokeColor=none;fillColor=none;align=center;verticalAlign=middle;whiteSpace=wrap;rounded=0;fontFamily=Times New Roman;fontSize=10;" parent="1" vertex="1">
          <mxGeometry x="1592.35" y="3169.47" width="66.929" height="19.68" as="geometry" />
        </mxCell>
        <mxCell id="UN5E2BRM_m0n_mUQd9ct-73" value="Пров" style="text;html=1;strokeColor=none;fillColor=none;align=center;verticalAlign=middle;whiteSpace=wrap;rounded=0;fontFamily=Times New Roman;fontSize=10;" parent="1" vertex="1">
          <mxGeometry x="1591.1069999999997" y="3190.217" width="66.929" height="19.68" as="geometry" />
        </mxCell>
        <mxCell id="UN5E2BRM_m0n_mUQd9ct-75" value="Н. Контр." style="text;html=1;strokeColor=none;fillColor=none;align=center;verticalAlign=middle;whiteSpace=wrap;rounded=0;fontFamily=Times New Roman;fontSize=10;" parent="1" vertex="1">
          <mxGeometry x="1592.001" y="3230.641" width="66.929" height="19.68" as="geometry" />
        </mxCell>
        <mxCell id="UN5E2BRM_m0n_mUQd9ct-76" value="Утв." style="text;html=1;strokeColor=none;fillColor=none;align=center;verticalAlign=middle;whiteSpace=wrap;rounded=0;fontFamily=Times New Roman;fontSize=10;" parent="1" vertex="1">
          <mxGeometry x="1592.008" y="3250.348" width="66.929" height="19.68" as="geometry" />
        </mxCell>
        <mxCell id="UN5E2BRM_m0n_mUQd9ct-77" value="Лит." style="text;html=1;strokeColor=none;fillColor=none;align=center;verticalAlign=middle;whiteSpace=wrap;rounded=0;fontFamily=Times New Roman;fontSize=10;" parent="1" vertex="1">
          <mxGeometry x="2123.1800000000003" y="3151.93" width="59.055" height="19.68" as="geometry" />
        </mxCell>
        <mxCell id="UN5E2BRM_m0n_mUQd9ct-78" value="Лист" style="text;html=1;strokeColor=none;fillColor=none;align=center;verticalAlign=middle;whiteSpace=wrap;rounded=0;fontFamily=Times New Roman;fontSize=10;" parent="1" vertex="1">
          <mxGeometry x="2182.2320000000004" y="3151.682" width="66.929" height="19.68" as="geometry" />
        </mxCell>
        <mxCell id="UN5E2BRM_m0n_mUQd9ct-79" value="Листов" style="text;html=1;strokeColor=none;fillColor=none;align=center;verticalAlign=middle;whiteSpace=wrap;rounded=0;fontFamily=Times New Roman;fontSize=10;" parent="1" vertex="1">
          <mxGeometry x="2249.16" y="3151.68" width="69.75" height="19.68" as="geometry" />
        </mxCell>
        <mxCell id="UN5E2BRM_m0n_mUQd9ct-80" value="" style="rounded=0;whiteSpace=wrap;html=1;fillColor=none;" parent="1" vertex="1">
          <mxGeometry x="1658.0400000000002" y="3171.6099999999997" width="90.551" height="19.685" as="geometry" />
        </mxCell>
        <mxCell id="UN5E2BRM_m0n_mUQd9ct-81" value="Вершинин В. В." style="text;html=1;strokeColor=none;fillColor=none;align=center;verticalAlign=middle;whiteSpace=wrap;rounded=0;fontFamily=Times New Roman;fontSize=10;" parent="1" vertex="1">
          <mxGeometry x="1659.28" y="3191.03" width="88.74" height="19.68" as="geometry" />
        </mxCell>
        <mxCell id="UN5E2BRM_m0n_mUQd9ct-82" value="Железов А.П." style="text;html=1;strokeColor=none;fillColor=none;align=center;verticalAlign=middle;whiteSpace=wrap;rounded=0;fontFamily=Times New Roman;fontSize=10;" parent="1" vertex="1">
          <mxGeometry x="1658.597" y="3171.337" width="88.74" height="19.68" as="geometry" />
        </mxCell>
        <mxCell id="UN5E2BRM_m0n_mUQd9ct-83" value="&lt;p class=&quot;MsoNormal&quot; align=&quot;center&quot;&gt;&lt;i&gt;&lt;span style=&quot;font-size: 18px&quot;&gt;ВлГУ.09.03.02.10.02&lt;/span&gt;&lt;/i&gt;&lt;/p&gt;" style="text;html=1;strokeColor=none;fillColor=none;align=center;verticalAlign=middle;whiteSpace=wrap;rounded=0;fontFamily=Times New Roman;fontSize=10;" parent="1" vertex="1">
          <mxGeometry x="1847.56" y="3092.86" width="471.33" height="56.74" as="geometry" />
        </mxCell>
        <mxCell id="UN5E2BRM_m0n_mUQd9ct-84" value="&lt;font style=&quot;font-size: 17px&quot;&gt;ИСТ-120&lt;/font&gt;" style="text;html=1;strokeColor=none;fillColor=none;align=center;verticalAlign=middle;whiteSpace=wrap;rounded=0;fontFamily=Times New Roman;fontSize=10;" parent="1" vertex="1">
          <mxGeometry x="2123.18" y="3209.9" width="195.71" height="57.81" as="geometry" />
        </mxCell>
        <mxCell id="UN5E2BRM_m0n_mUQd9ct-85" value="&lt;font style=&quot;font-size: 17px&quot;&gt;&lt;div style=&quot;font-size: 10px;&quot;&gt;&lt;span style=&quot;font-size: 17px; background-color: initial;&quot;&gt;Информационная система&amp;nbsp; «&lt;/span&gt;&lt;span style=&quot;background-color: initial; font-size: 17px; text-align: left;&quot;&gt;Студенческая база знаний. Тесты»&lt;/span&gt;&lt;/div&gt;ER-диаграмма физического уровня&lt;br&gt;&lt;/font&gt;" style="text;html=1;strokeColor=none;fillColor=none;align=center;verticalAlign=middle;whiteSpace=wrap;rounded=0;fontFamily=Times New Roman;fontSize=10;" parent="1" vertex="1">
          <mxGeometry x="1847.58" y="3151.93" width="274.46" height="116.09" as="geometry" />
        </mxCell>
        <mxCell id="TcTSat4PmSnbktt4OF8P-2" value="quiz" style="shape=table;startSize=55;container=1;collapsible=1;childLayout=tableLayout;fixedRows=1;rowLines=0;fontStyle=1;align=center;resizeLast=1;fontSize=26;comic=0;strokeWidth=4;" parent="1" vertex="1">
          <mxGeometry x="212.59999999999997" y="476.38" width="327.68" height="555" as="geometry" />
        </mxCell>
        <mxCell id="TcTSat4PmSnbktt4OF8P-3" value="" style="shape=tableRow;horizontal=0;startSize=0;swimlaneHead=0;swimlaneBody=0;fillColor=none;collapsible=0;dropTarget=0;points=[[0,0.5],[1,0.5]];portConstraint=eastwest;top=0;left=0;right=0;bottom=1;" parent="TcTSat4PmSnbktt4OF8P-2" vertex="1">
          <mxGeometry y="55" width="327.68" height="100" as="geometry" />
        </mxCell>
        <mxCell id="TcTSat4PmSnbktt4OF8P-4" value="PK" style="shape=partialRectangle;connectable=0;fillColor=none;top=0;left=0;bottom=0;right=0;fontStyle=1;overflow=hidden;fontSize=18;" parent="TcTSat4PmSnbktt4OF8P-3" vertex="1">
          <mxGeometry width="30" height="100" as="geometry">
            <mxRectangle width="30" height="100" as="alternateBounds" />
          </mxGeometry>
        </mxCell>
        <mxCell id="TcTSat4PmSnbktt4OF8P-5" value="id, uuid" style="shape=partialRectangle;connectable=0;fillColor=none;top=0;left=0;bottom=0;right=0;align=left;spacingLeft=6;fontStyle=5;overflow=hidden;fontSize=25;" parent="TcTSat4PmSnbktt4OF8P-3" vertex="1">
          <mxGeometry x="30" width="297.68" height="100" as="geometry">
            <mxRectangle width="297.68" height="100" as="alternateBounds" />
          </mxGeometry>
        </mxCell>
        <mxCell id="TcTSat4PmSnbktt4OF8P-6" value="" style="shape=tableRow;horizontal=0;startSize=0;swimlaneHead=0;swimlaneBody=0;fillColor=none;collapsible=0;dropTarget=0;points=[[0,0.5],[1,0.5]];portConstraint=eastwest;top=0;left=0;right=0;bottom=0;" parent="TcTSat4PmSnbktt4OF8P-2" vertex="1">
          <mxGeometry y="155" width="327.68" height="100" as="geometry" />
        </mxCell>
        <mxCell id="TcTSat4PmSnbktt4OF8P-7" value="FK" style="shape=partialRectangle;connectable=0;fillColor=none;top=0;left=0;bottom=0;right=0;fontStyle=0;overflow=hidden;fontSize=18;" parent="TcTSat4PmSnbktt4OF8P-6" vertex="1">
          <mxGeometry width="30" height="100" as="geometry">
            <mxRectangle width="30" height="100" as="alternateBounds" />
          </mxGeometry>
        </mxCell>
        <mxCell id="TcTSat4PmSnbktt4OF8P-8" value="subject_id, uuid, not null" style="shape=partialRectangle;connectable=0;fillColor=none;top=0;left=0;bottom=0;right=0;align=left;spacingLeft=6;fontStyle=0;overflow=hidden;fontSize=25;" parent="TcTSat4PmSnbktt4OF8P-6" vertex="1">
          <mxGeometry x="30" width="297.68" height="100" as="geometry">
            <mxRectangle width="297.68" height="100" as="alternateBounds" />
          </mxGeometry>
        </mxCell>
        <mxCell id="TcTSat4PmSnbktt4OF8P-9" value="" style="shape=tableRow;horizontal=0;startSize=0;swimlaneHead=0;swimlaneBody=0;fillColor=none;collapsible=0;dropTarget=0;points=[[0,0.5],[1,0.5]];portConstraint=eastwest;top=0;left=0;right=0;bottom=0;" parent="TcTSat4PmSnbktt4OF8P-2" vertex="1">
          <mxGeometry y="255" width="327.68" height="100" as="geometry" />
        </mxCell>
        <mxCell id="TcTSat4PmSnbktt4OF8P-10" value="" style="shape=partialRectangle;connectable=0;fillColor=none;top=0;left=0;bottom=0;right=0;editable=1;overflow=hidden;" parent="TcTSat4PmSnbktt4OF8P-9" vertex="1">
          <mxGeometry width="30" height="100" as="geometry">
            <mxRectangle width="30" height="100" as="alternateBounds" />
          </mxGeometry>
        </mxCell>
        <mxCell id="TcTSat4PmSnbktt4OF8P-11" value="quiz_name, text, not null" style="shape=partialRectangle;connectable=0;fillColor=none;top=0;left=0;bottom=0;right=0;align=left;spacingLeft=6;overflow=hidden;fontSize=25;" parent="TcTSat4PmSnbktt4OF8P-9" vertex="1">
          <mxGeometry x="30" width="297.68" height="100" as="geometry">
            <mxRectangle width="297.68" height="100" as="alternateBounds" />
          </mxGeometry>
        </mxCell>
        <mxCell id="TcTSat4PmSnbktt4OF8P-12" value="" style="shape=tableRow;horizontal=0;startSize=0;swimlaneHead=0;swimlaneBody=0;fillColor=none;collapsible=0;dropTarget=0;points=[[0,0.5],[1,0.5]];portConstraint=eastwest;top=0;left=0;right=0;bottom=0;" parent="TcTSat4PmSnbktt4OF8P-2" vertex="1">
          <mxGeometry y="355" width="327.68" height="100" as="geometry" />
        </mxCell>
        <mxCell id="TcTSat4PmSnbktt4OF8P-13" value="" style="shape=partialRectangle;connectable=0;fillColor=none;top=0;left=0;bottom=0;right=0;editable=1;overflow=hidden;" parent="TcTSat4PmSnbktt4OF8P-12" vertex="1">
          <mxGeometry width="30" height="100" as="geometry">
            <mxRectangle width="30" height="100" as="alternateBounds" />
          </mxGeometry>
        </mxCell>
        <mxCell id="TcTSat4PmSnbktt4OF8P-14" value="quiz_description, text, null" style="shape=partialRectangle;connectable=0;fillColor=none;top=0;left=0;bottom=0;right=0;align=left;spacingLeft=6;overflow=hidden;fontSize=25;" parent="TcTSat4PmSnbktt4OF8P-12" vertex="1">
          <mxGeometry x="30" width="297.68" height="100" as="geometry">
            <mxRectangle width="297.68" height="100" as="alternateBounds" />
          </mxGeometry>
        </mxCell>
        <mxCell id="TcTSat4PmSnbktt4OF8P-15" value="" style="shape=tableRow;horizontal=0;startSize=0;swimlaneHead=0;swimlaneBody=0;fillColor=none;collapsible=0;dropTarget=0;points=[[0,0.5],[1,0.5]];portConstraint=eastwest;top=0;left=0;right=0;bottom=0;" parent="TcTSat4PmSnbktt4OF8P-2" vertex="1">
          <mxGeometry y="455" width="327.68" height="100" as="geometry" />
        </mxCell>
        <mxCell id="TcTSat4PmSnbktt4OF8P-16" value="" style="shape=partialRectangle;connectable=0;fillColor=none;top=0;left=0;bottom=0;right=0;editable=1;overflow=hidden;" parent="TcTSat4PmSnbktt4OF8P-15" vertex="1">
          <mxGeometry width="30" height="100" as="geometry">
            <mxRectangle width="30" height="100" as="alternateBounds" />
          </mxGeometry>
        </mxCell>
        <mxCell id="TcTSat4PmSnbktt4OF8P-17" value="questions_amount, int, not null" style="shape=partialRectangle;connectable=0;fillColor=none;top=0;left=0;bottom=0;right=0;align=left;spacingLeft=6;overflow=hidden;fontSize=25;" parent="TcTSat4PmSnbktt4OF8P-15" vertex="1">
          <mxGeometry x="30" width="297.68" height="100" as="geometry">
            <mxRectangle width="297.68" height="100" as="alternateBounds" />
          </mxGeometry>
        </mxCell>
        <mxCell id="TcTSat4PmSnbktt4OF8P-18" value="quiz_variant" style="shape=table;startSize=55;container=1;collapsible=1;childLayout=tableLayout;fixedRows=1;rowLines=0;fontStyle=1;align=center;resizeLast=1;fontSize=26;comic=0;strokeWidth=4;" parent="1" vertex="1">
          <mxGeometry x="1814.97" y="74.8" width="327.68" height="455" as="geometry" />
        </mxCell>
        <mxCell id="TcTSat4PmSnbktt4OF8P-19" value="" style="shape=tableRow;horizontal=0;startSize=0;swimlaneHead=0;swimlaneBody=0;fillColor=none;collapsible=0;dropTarget=0;points=[[0,0.5],[1,0.5]];portConstraint=eastwest;top=0;left=0;right=0;bottom=1;" parent="TcTSat4PmSnbktt4OF8P-18" vertex="1">
          <mxGeometry y="55" width="327.68" height="100" as="geometry" />
        </mxCell>
        <mxCell id="TcTSat4PmSnbktt4OF8P-20" value="PK" style="shape=partialRectangle;connectable=0;fillColor=none;top=0;left=0;bottom=0;right=0;fontStyle=1;overflow=hidden;fontSize=18;" parent="TcTSat4PmSnbktt4OF8P-19" vertex="1">
          <mxGeometry width="30" height="100" as="geometry">
            <mxRectangle width="30" height="100" as="alternateBounds" />
          </mxGeometry>
        </mxCell>
        <mxCell id="TcTSat4PmSnbktt4OF8P-21" value="id, uuid" style="shape=partialRectangle;connectable=0;fillColor=none;top=0;left=0;bottom=0;right=0;align=left;spacingLeft=6;fontStyle=5;overflow=hidden;fontSize=25;" parent="TcTSat4PmSnbktt4OF8P-19" vertex="1">
          <mxGeometry x="30" width="297.68" height="100" as="geometry">
            <mxRectangle width="297.68" height="100" as="alternateBounds" />
          </mxGeometry>
        </mxCell>
        <mxCell id="TcTSat4PmSnbktt4OF8P-22" value="" style="shape=tableRow;horizontal=0;startSize=0;swimlaneHead=0;swimlaneBody=0;fillColor=none;collapsible=0;dropTarget=0;points=[[0,0.5],[1,0.5]];portConstraint=eastwest;top=0;left=0;right=0;bottom=0;" parent="TcTSat4PmSnbktt4OF8P-18" vertex="1">
          <mxGeometry y="155" width="327.68" height="100" as="geometry" />
        </mxCell>
        <mxCell id="TcTSat4PmSnbktt4OF8P-23" value="" style="shape=partialRectangle;connectable=0;fillColor=none;top=0;left=0;bottom=0;right=0;editable=1;overflow=hidden;" parent="TcTSat4PmSnbktt4OF8P-22" vertex="1">
          <mxGeometry width="30" height="100" as="geometry">
            <mxRectangle width="30" height="100" as="alternateBounds" />
          </mxGeometry>
        </mxCell>
        <mxCell id="TcTSat4PmSnbktt4OF8P-24" value="quiz_variant_text, text, not null" style="shape=partialRectangle;connectable=0;fillColor=none;top=0;left=0;bottom=0;right=0;align=left;spacingLeft=6;overflow=hidden;fontSize=25;" parent="TcTSat4PmSnbktt4OF8P-22" vertex="1">
          <mxGeometry x="30" width="297.68" height="100" as="geometry">
            <mxRectangle width="297.68" height="100" as="alternateBounds" />
          </mxGeometry>
        </mxCell>
        <mxCell id="TcTSat4PmSnbktt4OF8P-25" value="" style="shape=tableRow;horizontal=0;startSize=0;swimlaneHead=0;swimlaneBody=0;fillColor=none;collapsible=0;dropTarget=0;points=[[0,0.5],[1,0.5]];portConstraint=eastwest;top=0;left=0;right=0;bottom=0;" parent="TcTSat4PmSnbktt4OF8P-18" vertex="1">
          <mxGeometry y="255" width="327.68" height="100" as="geometry" />
        </mxCell>
        <mxCell id="TcTSat4PmSnbktt4OF8P-26" value="" style="shape=partialRectangle;connectable=0;fillColor=none;top=0;left=0;bottom=0;right=0;editable=1;overflow=hidden;" parent="TcTSat4PmSnbktt4OF8P-25" vertex="1">
          <mxGeometry width="30" height="100" as="geometry">
            <mxRectangle width="30" height="100" as="alternateBounds" />
          </mxGeometry>
        </mxCell>
        <mxCell id="TcTSat4PmSnbktt4OF8P-27" value="is_correct, boolean, not null" style="shape=partialRectangle;connectable=0;fillColor=none;top=0;left=0;bottom=0;right=0;align=left;spacingLeft=6;overflow=hidden;fontSize=25;" parent="TcTSat4PmSnbktt4OF8P-25" vertex="1">
          <mxGeometry x="30" width="297.68" height="100" as="geometry">
            <mxRectangle width="297.68" height="100" as="alternateBounds" />
          </mxGeometry>
        </mxCell>
        <mxCell id="TcTSat4PmSnbktt4OF8P-28" value="" style="shape=tableRow;horizontal=0;startSize=0;swimlaneHead=0;swimlaneBody=0;fillColor=none;collapsible=0;dropTarget=0;points=[[0,0.5],[1,0.5]];portConstraint=eastwest;top=0;left=0;right=0;bottom=0;" parent="TcTSat4PmSnbktt4OF8P-18" vertex="1">
          <mxGeometry y="355" width="327.68" height="100" as="geometry" />
        </mxCell>
        <mxCell id="TcTSat4PmSnbktt4OF8P-29" value="FK" style="shape=partialRectangle;connectable=0;fillColor=none;top=0;left=0;bottom=0;right=0;editable=1;overflow=hidden;" parent="TcTSat4PmSnbktt4OF8P-28" vertex="1">
          <mxGeometry width="30" height="100" as="geometry">
            <mxRectangle width="30" height="100" as="alternateBounds" />
          </mxGeometry>
        </mxCell>
        <mxCell id="TcTSat4PmSnbktt4OF8P-30" value="question_id, uuid, not null" style="shape=partialRectangle;connectable=0;fillColor=none;top=0;left=0;bottom=0;right=0;align=left;spacingLeft=6;overflow=hidden;fontSize=25;" parent="TcTSat4PmSnbktt4OF8P-28" vertex="1">
          <mxGeometry x="30" width="297.68" height="100" as="geometry">
            <mxRectangle width="297.68" height="100" as="alternateBounds" />
          </mxGeometry>
        </mxCell>
        <mxCell id="TcTSat4PmSnbktt4OF8P-31" value="question" style="shape=table;startSize=55;container=1;collapsible=1;childLayout=tableLayout;fixedRows=1;rowLines=0;fontStyle=1;align=center;resizeLast=1;fontSize=26;comic=0;strokeWidth=4;" parent="1" vertex="1">
          <mxGeometry x="677.16" y="94.49" width="350.15" height="555.12" as="geometry" />
        </mxCell>
        <mxCell id="TcTSat4PmSnbktt4OF8P-32" value="" style="shape=tableRow;horizontal=0;startSize=0;swimlaneHead=0;swimlaneBody=0;fillColor=none;collapsible=0;dropTarget=0;points=[[0,0.5],[1,0.5]];portConstraint=eastwest;top=0;left=0;right=0;bottom=1;" parent="TcTSat4PmSnbktt4OF8P-31" vertex="1">
          <mxGeometry y="55" width="350.15" height="100" as="geometry" />
        </mxCell>
        <mxCell id="TcTSat4PmSnbktt4OF8P-33" value="PK" style="shape=partialRectangle;connectable=0;fillColor=none;top=0;left=0;bottom=0;right=0;fontStyle=1;overflow=hidden;fontSize=18;" parent="TcTSat4PmSnbktt4OF8P-32" vertex="1">
          <mxGeometry width="30" height="100" as="geometry">
            <mxRectangle width="30" height="100" as="alternateBounds" />
          </mxGeometry>
        </mxCell>
        <mxCell id="TcTSat4PmSnbktt4OF8P-34" value="id, uuid" style="shape=partialRectangle;connectable=0;fillColor=none;top=0;left=0;bottom=0;right=0;align=left;spacingLeft=6;fontStyle=5;overflow=hidden;fontSize=25;" parent="TcTSat4PmSnbktt4OF8P-32" vertex="1">
          <mxGeometry x="30" width="320.15" height="100" as="geometry">
            <mxRectangle width="320.15" height="100" as="alternateBounds" />
          </mxGeometry>
        </mxCell>
        <mxCell id="TcTSat4PmSnbktt4OF8P-35" value="" style="shape=tableRow;horizontal=0;startSize=0;swimlaneHead=0;swimlaneBody=0;fillColor=none;collapsible=0;dropTarget=0;points=[[0,0.5],[1,0.5]];portConstraint=eastwest;top=0;left=0;right=0;bottom=0;" parent="TcTSat4PmSnbktt4OF8P-31" vertex="1">
          <mxGeometry y="155" width="350.15" height="100" as="geometry" />
        </mxCell>
        <mxCell id="TcTSat4PmSnbktt4OF8P-36" value="FK" style="shape=partialRectangle;connectable=0;fillColor=none;top=0;left=0;bottom=0;right=0;editable=1;overflow=hidden;fontSize=18;" parent="TcTSat4PmSnbktt4OF8P-35" vertex="1">
          <mxGeometry width="30" height="100" as="geometry">
            <mxRectangle width="30" height="100" as="alternateBounds" />
          </mxGeometry>
        </mxCell>
        <mxCell id="TcTSat4PmSnbktt4OF8P-37" value="quiz_id, uuid, not null" style="shape=partialRectangle;connectable=0;fillColor=none;top=0;left=0;bottom=0;right=0;align=left;spacingLeft=6;overflow=hidden;fontSize=25;" parent="TcTSat4PmSnbktt4OF8P-35" vertex="1">
          <mxGeometry x="30" width="320.15" height="100" as="geometry">
            <mxRectangle width="320.15" height="100" as="alternateBounds" />
          </mxGeometry>
        </mxCell>
        <mxCell id="TcTSat4PmSnbktt4OF8P-38" value="" style="shape=tableRow;horizontal=0;startSize=0;swimlaneHead=0;swimlaneBody=0;fillColor=none;collapsible=0;dropTarget=0;points=[[0,0.5],[1,0.5]];portConstraint=eastwest;top=0;left=0;right=0;bottom=0;" parent="TcTSat4PmSnbktt4OF8P-31" vertex="1">
          <mxGeometry y="255" width="350.15" height="100" as="geometry" />
        </mxCell>
        <mxCell id="TcTSat4PmSnbktt4OF8P-39" value="" style="shape=partialRectangle;connectable=0;fillColor=none;top=0;left=0;bottom=0;right=0;editable=1;overflow=hidden;" parent="TcTSat4PmSnbktt4OF8P-38" vertex="1">
          <mxGeometry width="30" height="100" as="geometry">
            <mxRectangle width="30" height="100" as="alternateBounds" />
          </mxGeometry>
        </mxCell>
        <mxCell id="TcTSat4PmSnbktt4OF8P-40" value="question_text, text, not null" style="shape=partialRectangle;connectable=0;fillColor=none;top=0;left=0;bottom=0;right=0;align=left;spacingLeft=6;overflow=hidden;fontSize=25;" parent="TcTSat4PmSnbktt4OF8P-38" vertex="1">
          <mxGeometry x="30" width="320.15" height="100" as="geometry">
            <mxRectangle width="320.15" height="100" as="alternateBounds" />
          </mxGeometry>
        </mxCell>
        <mxCell id="TcTSat4PmSnbktt4OF8P-41" value="" style="shape=tableRow;horizontal=0;startSize=0;swimlaneHead=0;swimlaneBody=0;fillColor=none;collapsible=0;dropTarget=0;points=[[0,0.5],[1,0.5]];portConstraint=eastwest;top=0;left=0;right=0;bottom=0;" parent="TcTSat4PmSnbktt4OF8P-31" vertex="1">
          <mxGeometry y="355" width="350.15" height="100" as="geometry" />
        </mxCell>
        <mxCell id="TcTSat4PmSnbktt4OF8P-42" value="" style="shape=partialRectangle;connectable=0;fillColor=none;top=0;left=0;bottom=0;right=0;editable=1;overflow=hidden;" parent="TcTSat4PmSnbktt4OF8P-41" vertex="1">
          <mxGeometry width="30" height="100" as="geometry">
            <mxRectangle width="30" height="100" as="alternateBounds" />
          </mxGeometry>
        </mxCell>
        <mxCell id="TcTSat4PmSnbktt4OF8P-43" value="correct_answers_amount, int, not null" style="shape=partialRectangle;connectable=0;fillColor=none;top=0;left=0;bottom=0;right=0;align=left;spacingLeft=6;overflow=hidden;fontSize=25;" parent="TcTSat4PmSnbktt4OF8P-41" vertex="1">
          <mxGeometry x="30" width="320.15" height="100" as="geometry">
            <mxRectangle width="320.15" height="100" as="alternateBounds" />
          </mxGeometry>
        </mxCell>
        <mxCell id="TcTSat4PmSnbktt4OF8P-44" value="" style="shape=tableRow;horizontal=0;startSize=0;swimlaneHead=0;swimlaneBody=0;fillColor=none;collapsible=0;dropTarget=0;points=[[0,0.5],[1,0.5]];portConstraint=eastwest;top=0;left=0;right=0;bottom=0;" parent="TcTSat4PmSnbktt4OF8P-31" vertex="1">
          <mxGeometry y="455" width="350.15" height="100" as="geometry" />
        </mxCell>
        <mxCell id="TcTSat4PmSnbktt4OF8P-45" value="" style="shape=partialRectangle;connectable=0;fillColor=none;top=0;left=0;bottom=0;right=0;editable=1;overflow=hidden;" parent="TcTSat4PmSnbktt4OF8P-44" vertex="1">
          <mxGeometry width="30" height="100" as="geometry">
            <mxRectangle width="30" height="100" as="alternateBounds" />
          </mxGeometry>
        </mxCell>
        <mxCell id="TcTSat4PmSnbktt4OF8P-46" value="total_answers_amount, int, not null" style="shape=partialRectangle;connectable=0;fillColor=none;top=0;left=0;bottom=0;right=0;align=left;spacingLeft=6;overflow=hidden;fontSize=25;" parent="TcTSat4PmSnbktt4OF8P-44" vertex="1">
          <mxGeometry x="30" width="320.15" height="100" as="geometry">
            <mxRectangle width="320.15" height="100" as="alternateBounds" />
          </mxGeometry>
        </mxCell>
        <mxCell id="TcTSat4PmSnbktt4OF8P-47" value="group" style="shape=table;startSize=55;container=1;collapsible=1;childLayout=tableLayout;fixedRows=1;rowLines=0;fontStyle=1;align=center;resizeLast=1;fontSize=26;comic=0;strokeWidth=4;" parent="1" vertex="1">
          <mxGeometry x="602.3599999999999" y="2496.06" width="265.31" height="355" as="geometry" />
        </mxCell>
        <mxCell id="TcTSat4PmSnbktt4OF8P-48" value="" style="shape=tableRow;horizontal=0;startSize=0;swimlaneHead=0;swimlaneBody=0;fillColor=none;collapsible=0;dropTarget=0;points=[[0,0.5],[1,0.5]];portConstraint=eastwest;top=0;left=0;right=0;bottom=1;" parent="TcTSat4PmSnbktt4OF8P-47" vertex="1">
          <mxGeometry y="55" width="265.31" height="100" as="geometry" />
        </mxCell>
        <mxCell id="TcTSat4PmSnbktt4OF8P-49" value="PK" style="shape=partialRectangle;connectable=0;fillColor=none;top=0;left=0;bottom=0;right=0;fontStyle=1;overflow=hidden;fontSize=18;" parent="TcTSat4PmSnbktt4OF8P-48" vertex="1">
          <mxGeometry width="30" height="100" as="geometry">
            <mxRectangle width="30" height="100" as="alternateBounds" />
          </mxGeometry>
        </mxCell>
        <mxCell id="TcTSat4PmSnbktt4OF8P-50" value="id, uuid" style="shape=partialRectangle;connectable=0;fillColor=none;top=0;left=0;bottom=0;right=0;align=left;spacingLeft=6;fontStyle=5;overflow=hidden;fontSize=25;" parent="TcTSat4PmSnbktt4OF8P-48" vertex="1">
          <mxGeometry x="30" width="235.31" height="100" as="geometry">
            <mxRectangle width="235.31" height="100" as="alternateBounds" />
          </mxGeometry>
        </mxCell>
        <mxCell id="TcTSat4PmSnbktt4OF8P-51" value="" style="shape=tableRow;horizontal=0;startSize=0;swimlaneHead=0;swimlaneBody=0;fillColor=none;collapsible=0;dropTarget=0;points=[[0,0.5],[1,0.5]];portConstraint=eastwest;top=0;left=0;right=0;bottom=0;" parent="TcTSat4PmSnbktt4OF8P-47" vertex="1">
          <mxGeometry y="155" width="265.31" height="100" as="geometry" />
        </mxCell>
        <mxCell id="TcTSat4PmSnbktt4OF8P-52" value="FK" style="shape=partialRectangle;connectable=0;fillColor=none;top=0;left=0;bottom=0;right=0;fontStyle=0;overflow=hidden;fontSize=18;" parent="TcTSat4PmSnbktt4OF8P-51" vertex="1">
          <mxGeometry width="30" height="100" as="geometry">
            <mxRectangle width="30" height="100" as="alternateBounds" />
          </mxGeometry>
        </mxCell>
        <mxCell id="TcTSat4PmSnbktt4OF8P-53" value="speciality_id, uuid, not null" style="shape=partialRectangle;connectable=0;fillColor=none;top=0;left=0;bottom=0;right=0;align=left;spacingLeft=6;fontStyle=0;overflow=hidden;fontSize=25;" parent="TcTSat4PmSnbktt4OF8P-51" vertex="1">
          <mxGeometry x="30" width="235.31" height="100" as="geometry">
            <mxRectangle width="235.31" height="100" as="alternateBounds" />
          </mxGeometry>
        </mxCell>
        <mxCell id="TcTSat4PmSnbktt4OF8P-57" value="" style="shape=tableRow;horizontal=0;startSize=0;swimlaneHead=0;swimlaneBody=0;fillColor=none;collapsible=0;dropTarget=0;points=[[0,0.5],[1,0.5]];portConstraint=eastwest;top=0;left=0;right=0;bottom=0;" parent="TcTSat4PmSnbktt4OF8P-47" vertex="1">
          <mxGeometry y="255" width="265.31" height="100" as="geometry" />
        </mxCell>
        <mxCell id="TcTSat4PmSnbktt4OF8P-58" value="" style="shape=partialRectangle;connectable=0;fillColor=none;top=0;left=0;bottom=0;right=0;editable=1;overflow=hidden;" parent="TcTSat4PmSnbktt4OF8P-57" vertex="1">
          <mxGeometry width="30" height="100" as="geometry">
            <mxRectangle width="30" height="100" as="alternateBounds" />
          </mxGeometry>
        </mxCell>
        <mxCell id="TcTSat4PmSnbktt4OF8P-59" value="group_name, text, not null" style="shape=partialRectangle;connectable=0;fillColor=none;top=0;left=0;bottom=0;right=0;align=left;spacingLeft=6;overflow=hidden;fontSize=25;" parent="TcTSat4PmSnbktt4OF8P-57" vertex="1">
          <mxGeometry x="30" width="235.31" height="100" as="geometry">
            <mxRectangle width="235.31" height="100" as="alternateBounds" />
          </mxGeometry>
        </mxCell>
        <mxCell id="TcTSat4PmSnbktt4OF8P-60" value="trash" style="shape=table;startSize=55;container=1;collapsible=1;childLayout=tableLayout;fixedRows=1;rowLines=0;fontStyle=1;align=center;resizeLast=1;fontSize=26;comic=0;strokeWidth=4;" parent="1" vertex="1">
          <mxGeometry x="56.25" y="2555.11" width="309.75" height="455" as="geometry" />
        </mxCell>
        <mxCell id="TcTSat4PmSnbktt4OF8P-61" value="" style="shape=tableRow;horizontal=0;startSize=0;swimlaneHead=0;swimlaneBody=0;fillColor=none;collapsible=0;dropTarget=0;points=[[0,0.5],[1,0.5]];portConstraint=eastwest;top=0;left=0;right=0;bottom=1;" parent="TcTSat4PmSnbktt4OF8P-60" vertex="1">
          <mxGeometry y="55" width="309.75" height="100" as="geometry" />
        </mxCell>
        <mxCell id="TcTSat4PmSnbktt4OF8P-62" value="PK" style="shape=partialRectangle;connectable=0;fillColor=none;top=0;left=0;bottom=0;right=0;fontStyle=1;overflow=hidden;fontSize=18;" parent="TcTSat4PmSnbktt4OF8P-61" vertex="1">
          <mxGeometry width="30" height="100" as="geometry">
            <mxRectangle width="30" height="100" as="alternateBounds" />
          </mxGeometry>
        </mxCell>
        <mxCell id="TcTSat4PmSnbktt4OF8P-63" value="id, uuid" style="shape=partialRectangle;connectable=0;fillColor=none;top=0;left=0;bottom=0;right=0;align=left;spacingLeft=6;fontStyle=5;overflow=hidden;fontSize=25;" parent="TcTSat4PmSnbktt4OF8P-61" vertex="1">
          <mxGeometry x="30" width="279.75" height="100" as="geometry">
            <mxRectangle width="279.75" height="100" as="alternateBounds" />
          </mxGeometry>
        </mxCell>
        <mxCell id="TcTSat4PmSnbktt4OF8P-64" value="" style="shape=tableRow;horizontal=0;startSize=0;swimlaneHead=0;swimlaneBody=0;fillColor=none;collapsible=0;dropTarget=0;points=[[0,0.5],[1,0.5]];portConstraint=eastwest;top=0;left=0;right=0;bottom=0;" parent="TcTSat4PmSnbktt4OF8P-60" vertex="1">
          <mxGeometry y="155" width="309.75" height="100" as="geometry" />
        </mxCell>
        <mxCell id="TcTSat4PmSnbktt4OF8P-65" value="FK" style="shape=partialRectangle;connectable=0;fillColor=none;top=0;left=0;bottom=0;right=0;fontStyle=0;overflow=hidden;fontSize=18;" parent="TcTSat4PmSnbktt4OF8P-64" vertex="1">
          <mxGeometry width="30" height="100" as="geometry">
            <mxRectangle width="30" height="100" as="alternateBounds" />
          </mxGeometry>
        </mxCell>
        <mxCell id="TcTSat4PmSnbktt4OF8P-66" value="group_id, uuid, not null" style="shape=partialRectangle;connectable=0;fillColor=none;top=0;left=0;bottom=0;right=0;align=left;spacingLeft=6;fontStyle=0;overflow=hidden;fontSize=25;" parent="TcTSat4PmSnbktt4OF8P-64" vertex="1">
          <mxGeometry x="30" width="279.75" height="100" as="geometry">
            <mxRectangle width="279.75" height="100" as="alternateBounds" />
          </mxGeometry>
        </mxCell>
        <mxCell id="TcTSat4PmSnbktt4OF8P-67" value="" style="shape=tableRow;horizontal=0;startSize=0;swimlaneHead=0;swimlaneBody=0;fillColor=none;collapsible=0;dropTarget=0;points=[[0,0.5],[1,0.5]];portConstraint=eastwest;top=0;left=0;right=0;bottom=0;" parent="TcTSat4PmSnbktt4OF8P-60" vertex="1">
          <mxGeometry y="255" width="309.75" height="100" as="geometry" />
        </mxCell>
        <mxCell id="TcTSat4PmSnbktt4OF8P-68" value="" style="shape=partialRectangle;connectable=0;fillColor=none;top=0;left=0;bottom=0;right=0;editable=1;overflow=hidden;" parent="TcTSat4PmSnbktt4OF8P-67" vertex="1">
          <mxGeometry width="30" height="100" as="geometry">
            <mxRectangle width="30" height="100" as="alternateBounds" />
          </mxGeometry>
        </mxCell>
        <mxCell id="TcTSat4PmSnbktt4OF8P-69" value="deleted_id, uuid, not null" style="shape=partialRectangle;connectable=0;fillColor=none;top=0;left=0;bottom=0;right=0;align=left;spacingLeft=6;overflow=hidden;fontSize=25;" parent="TcTSat4PmSnbktt4OF8P-67" vertex="1">
          <mxGeometry x="30" width="279.75" height="100" as="geometry">
            <mxRectangle width="279.75" height="100" as="alternateBounds" />
          </mxGeometry>
        </mxCell>
        <mxCell id="TcTSat4PmSnbktt4OF8P-70" value="" style="shape=tableRow;horizontal=0;startSize=0;swimlaneHead=0;swimlaneBody=0;fillColor=none;collapsible=0;dropTarget=0;points=[[0,0.5],[1,0.5]];portConstraint=eastwest;top=0;left=0;right=0;bottom=0;" parent="TcTSat4PmSnbktt4OF8P-60" vertex="1">
          <mxGeometry y="355" width="309.75" height="100" as="geometry" />
        </mxCell>
        <mxCell id="TcTSat4PmSnbktt4OF8P-71" value="" style="shape=partialRectangle;connectable=0;fillColor=none;top=0;left=0;bottom=0;right=0;editable=1;overflow=hidden;" parent="TcTSat4PmSnbktt4OF8P-70" vertex="1">
          <mxGeometry width="30" height="100" as="geometry">
            <mxRectangle width="30" height="100" as="alternateBounds" />
          </mxGeometry>
        </mxCell>
        <mxCell id="TcTSat4PmSnbktt4OF8P-72" value="deleting_date, timestamp, not null" style="shape=partialRectangle;connectable=0;fillColor=none;top=0;left=0;bottom=0;right=0;align=left;spacingLeft=6;overflow=hidden;fontSize=25;" parent="TcTSat4PmSnbktt4OF8P-70" vertex="1">
          <mxGeometry x="30" width="279.75" height="100" as="geometry">
            <mxRectangle width="279.75" height="100" as="alternateBounds" />
          </mxGeometry>
        </mxCell>
        <mxCell id="TcTSat4PmSnbktt4OF8P-73" value="subject" style="shape=table;startSize=55;container=1;collapsible=1;childLayout=tableLayout;fixedRows=1;rowLines=0;fontStyle=1;align=center;resizeLast=1;fontSize=26;comic=0;strokeWidth=4;" parent="1" vertex="1">
          <mxGeometry x="110.12" y="1382.14" width="255.88" height="456.44" as="geometry" />
        </mxCell>
        <mxCell id="TcTSat4PmSnbktt4OF8P-74" value="" style="shape=tableRow;horizontal=0;startSize=0;swimlaneHead=0;swimlaneBody=0;fillColor=none;collapsible=0;dropTarget=0;points=[[0,0.5],[1,0.5]];portConstraint=eastwest;top=0;left=0;right=0;bottom=1;" parent="TcTSat4PmSnbktt4OF8P-73" vertex="1">
          <mxGeometry y="55" width="255.88" height="100" as="geometry" />
        </mxCell>
        <mxCell id="TcTSat4PmSnbktt4OF8P-75" value="PK" style="shape=partialRectangle;connectable=0;fillColor=none;top=0;left=0;bottom=0;right=0;fontStyle=1;overflow=hidden;fontSize=18;" parent="TcTSat4PmSnbktt4OF8P-74" vertex="1">
          <mxGeometry width="30" height="100" as="geometry">
            <mxRectangle width="30" height="100" as="alternateBounds" />
          </mxGeometry>
        </mxCell>
        <mxCell id="TcTSat4PmSnbktt4OF8P-76" value="id. uuid" style="shape=partialRectangle;connectable=0;fillColor=none;top=0;left=0;bottom=0;right=0;align=left;spacingLeft=6;fontStyle=5;overflow=hidden;fontSize=25;" parent="TcTSat4PmSnbktt4OF8P-74" vertex="1">
          <mxGeometry x="30" width="225.88" height="100" as="geometry">
            <mxRectangle width="225.88" height="100" as="alternateBounds" />
          </mxGeometry>
        </mxCell>
        <mxCell id="TcTSat4PmSnbktt4OF8P-77" value="" style="shape=tableRow;horizontal=0;startSize=0;swimlaneHead=0;swimlaneBody=0;fillColor=none;collapsible=0;dropTarget=0;points=[[0,0.5],[1,0.5]];portConstraint=eastwest;top=0;left=0;right=0;bottom=0;" parent="TcTSat4PmSnbktt4OF8P-73" vertex="1">
          <mxGeometry y="155" width="255.88" height="100" as="geometry" />
        </mxCell>
        <mxCell id="TcTSat4PmSnbktt4OF8P-78" value="FK" style="shape=partialRectangle;connectable=0;fillColor=none;top=0;left=0;bottom=0;right=0;fontStyle=0;overflow=hidden;fontSize=18;" parent="TcTSat4PmSnbktt4OF8P-77" vertex="1">
          <mxGeometry width="30" height="100" as="geometry">
            <mxRectangle width="30" height="100" as="alternateBounds" />
          </mxGeometry>
        </mxCell>
        <mxCell id="TcTSat4PmSnbktt4OF8P-79" value="group_id, uuid, not null" style="shape=partialRectangle;connectable=0;fillColor=none;top=0;left=0;bottom=0;right=0;align=left;spacingLeft=6;fontStyle=0;overflow=hidden;fontSize=25;" parent="TcTSat4PmSnbktt4OF8P-77" vertex="1">
          <mxGeometry x="30" width="225.88" height="100" as="geometry">
            <mxRectangle width="225.88" height="100" as="alternateBounds" />
          </mxGeometry>
        </mxCell>
        <mxCell id="TcTSat4PmSnbktt4OF8P-80" value="" style="shape=tableRow;horizontal=0;startSize=0;swimlaneHead=0;swimlaneBody=0;fillColor=none;collapsible=0;dropTarget=0;points=[[0,0.5],[1,0.5]];portConstraint=eastwest;top=0;left=0;right=0;bottom=0;" parent="TcTSat4PmSnbktt4OF8P-73" vertex="1">
          <mxGeometry y="255" width="255.88" height="100" as="geometry" />
        </mxCell>
        <mxCell id="TcTSat4PmSnbktt4OF8P-81" value="" style="shape=partialRectangle;connectable=0;fillColor=none;top=0;left=0;bottom=0;right=0;editable=1;overflow=hidden;" parent="TcTSat4PmSnbktt4OF8P-80" vertex="1">
          <mxGeometry width="30" height="100" as="geometry">
            <mxRectangle width="30" height="100" as="alternateBounds" />
          </mxGeometry>
        </mxCell>
        <mxCell id="TcTSat4PmSnbktt4OF8P-82" value="subject_name, text, not null" style="shape=partialRectangle;connectable=0;fillColor=none;top=0;left=0;bottom=0;right=0;align=left;spacingLeft=6;overflow=hidden;fontSize=25;" parent="TcTSat4PmSnbktt4OF8P-80" vertex="1">
          <mxGeometry x="30" width="225.88" height="100" as="geometry">
            <mxRectangle width="225.88" height="100" as="alternateBounds" />
          </mxGeometry>
        </mxCell>
        <mxCell id="TcTSat4PmSnbktt4OF8P-83" value="" style="shape=tableRow;horizontal=0;startSize=0;swimlaneHead=0;swimlaneBody=0;fillColor=none;collapsible=0;dropTarget=0;points=[[0,0.5],[1,0.5]];portConstraint=eastwest;top=0;left=0;right=0;bottom=0;" parent="TcTSat4PmSnbktt4OF8P-73" vertex="1">
          <mxGeometry y="355" width="255.88" height="100" as="geometry" />
        </mxCell>
        <mxCell id="TcTSat4PmSnbktt4OF8P-84" value="" style="shape=partialRectangle;connectable=0;fillColor=none;top=0;left=0;bottom=0;right=0;editable=1;overflow=hidden;" parent="TcTSat4PmSnbktt4OF8P-83" vertex="1">
          <mxGeometry width="30" height="100" as="geometry">
            <mxRectangle width="30" height="100" as="alternateBounds" />
          </mxGeometry>
        </mxCell>
        <mxCell id="TcTSat4PmSnbktt4OF8P-85" value="semester, int, not null" style="shape=partialRectangle;connectable=0;fillColor=none;top=0;left=0;bottom=0;right=0;align=left;spacingLeft=6;overflow=hidden;fontSize=25;" parent="TcTSat4PmSnbktt4OF8P-83" vertex="1">
          <mxGeometry x="30" width="225.88" height="100" as="geometry">
            <mxRectangle width="225.88" height="100" as="alternateBounds" />
          </mxGeometry>
        </mxCell>
        <mxCell id="TcTSat4PmSnbktt4OF8P-86" value="event" style="shape=table;startSize=55;container=1;collapsible=1;childLayout=tableLayout;fixedRows=1;rowLines=0;fontStyle=1;align=center;resizeLast=1;fontSize=26;comic=0;strokeWidth=4;" parent="1" vertex="1">
          <mxGeometry x="937.0099999999999" y="1354.3299999999997" width="296.28" height="755" as="geometry" />
        </mxCell>
        <mxCell id="TcTSat4PmSnbktt4OF8P-87" value="" style="shape=tableRow;horizontal=0;startSize=0;swimlaneHead=0;swimlaneBody=0;fillColor=none;collapsible=0;dropTarget=0;points=[[0,0.5],[1,0.5]];portConstraint=eastwest;top=0;left=0;right=0;bottom=1;" parent="TcTSat4PmSnbktt4OF8P-86" vertex="1">
          <mxGeometry y="55" width="296.28" height="100" as="geometry" />
        </mxCell>
        <mxCell id="TcTSat4PmSnbktt4OF8P-88" value="PK" style="shape=partialRectangle;connectable=0;fillColor=none;top=0;left=0;bottom=0;right=0;fontStyle=1;overflow=hidden;fontSize=18;" parent="TcTSat4PmSnbktt4OF8P-87" vertex="1">
          <mxGeometry width="30" height="100" as="geometry">
            <mxRectangle width="30" height="100" as="alternateBounds" />
          </mxGeometry>
        </mxCell>
        <mxCell id="TcTSat4PmSnbktt4OF8P-89" value="id, uuid" style="shape=partialRectangle;connectable=0;fillColor=none;top=0;left=0;bottom=0;right=0;align=left;spacingLeft=6;fontStyle=5;overflow=hidden;fontSize=25;" parent="TcTSat4PmSnbktt4OF8P-87" vertex="1">
          <mxGeometry x="30" width="266.28" height="100" as="geometry">
            <mxRectangle width="266.28" height="100" as="alternateBounds" />
          </mxGeometry>
        </mxCell>
        <mxCell id="TcTSat4PmSnbktt4OF8P-90" value="" style="shape=tableRow;horizontal=0;startSize=0;swimlaneHead=0;swimlaneBody=0;fillColor=none;collapsible=0;dropTarget=0;points=[[0,0.5],[1,0.5]];portConstraint=eastwest;top=0;left=0;right=0;bottom=0;" parent="TcTSat4PmSnbktt4OF8P-86" vertex="1">
          <mxGeometry y="155" width="296.28" height="100" as="geometry" />
        </mxCell>
        <mxCell id="TcTSat4PmSnbktt4OF8P-91" value="FK" style="shape=partialRectangle;connectable=0;fillColor=none;top=0;left=0;bottom=0;right=0;fontStyle=0;overflow=hidden;fontSize=18;" parent="TcTSat4PmSnbktt4OF8P-90" vertex="1">
          <mxGeometry width="30" height="100" as="geometry">
            <mxRectangle width="30" height="100" as="alternateBounds" />
          </mxGeometry>
        </mxCell>
        <mxCell id="TcTSat4PmSnbktt4OF8P-92" value="group_id, uuid,  null" style="shape=partialRectangle;connectable=0;fillColor=none;top=0;left=0;bottom=0;right=0;align=left;spacingLeft=6;fontStyle=0;overflow=hidden;fontSize=25;" parent="TcTSat4PmSnbktt4OF8P-90" vertex="1">
          <mxGeometry x="30" width="266.28" height="100" as="geometry">
            <mxRectangle width="266.28" height="100" as="alternateBounds" />
          </mxGeometry>
        </mxCell>
        <mxCell id="TcTSat4PmSnbktt4OF8P-93" value="" style="shape=tableRow;horizontal=0;startSize=0;swimlaneHead=0;swimlaneBody=0;fillColor=none;collapsible=0;dropTarget=0;points=[[0,0.5],[1,0.5]];portConstraint=eastwest;top=0;left=0;right=0;bottom=0;" parent="TcTSat4PmSnbktt4OF8P-86" vertex="1">
          <mxGeometry y="255" width="296.28" height="100" as="geometry" />
        </mxCell>
        <mxCell id="TcTSat4PmSnbktt4OF8P-94" value="FK" style="shape=partialRectangle;connectable=0;fillColor=none;top=0;left=0;bottom=0;right=0;editable=1;overflow=hidden;fontSize=18;" parent="TcTSat4PmSnbktt4OF8P-93" vertex="1">
          <mxGeometry width="30" height="100" as="geometry">
            <mxRectangle width="30" height="100" as="alternateBounds" />
          </mxGeometry>
        </mxCell>
        <mxCell id="TcTSat4PmSnbktt4OF8P-95" value="user_id, uuid, null" style="shape=partialRectangle;connectable=0;fillColor=none;top=0;left=0;bottom=0;right=0;align=left;spacingLeft=6;overflow=hidden;fontSize=25;" parent="TcTSat4PmSnbktt4OF8P-93" vertex="1">
          <mxGeometry x="30" width="266.28" height="100" as="geometry">
            <mxRectangle width="266.28" height="100" as="alternateBounds" />
          </mxGeometry>
        </mxCell>
        <mxCell id="TcTSat4PmSnbktt4OF8P-96" value="" style="shape=tableRow;horizontal=0;startSize=0;swimlaneHead=0;swimlaneBody=0;fillColor=none;collapsible=0;dropTarget=0;points=[[0,0.5],[1,0.5]];portConstraint=eastwest;top=0;left=0;right=0;bottom=0;" parent="TcTSat4PmSnbktt4OF8P-86" vertex="1">
          <mxGeometry y="355" width="296.28" height="100" as="geometry" />
        </mxCell>
        <mxCell id="TcTSat4PmSnbktt4OF8P-97" value="FK" style="shape=partialRectangle;connectable=0;fillColor=none;top=0;left=0;bottom=0;right=0;fontStyle=0;overflow=hidden;fontSize=18;" parent="TcTSat4PmSnbktt4OF8P-96" vertex="1">
          <mxGeometry width="30" height="100" as="geometry">
            <mxRectangle width="30" height="100" as="alternateBounds" />
          </mxGeometry>
        </mxCell>
        <mxCell id="TcTSat4PmSnbktt4OF8P-98" value="event_priority_id, uuid, not null" style="shape=partialRectangle;connectable=0;fillColor=none;top=0;left=0;bottom=0;right=0;align=left;spacingLeft=6;fontStyle=0;overflow=hidden;fontSize=25;" parent="TcTSat4PmSnbktt4OF8P-96" vertex="1">
          <mxGeometry x="30" width="266.28" height="100" as="geometry">
            <mxRectangle width="266.28" height="100" as="alternateBounds" />
          </mxGeometry>
        </mxCell>
        <mxCell id="TcTSat4PmSnbktt4OF8P-99" value="" style="shape=tableRow;horizontal=0;startSize=0;swimlaneHead=0;swimlaneBody=0;fillColor=none;collapsible=0;dropTarget=0;points=[[0,0.5],[1,0.5]];portConstraint=eastwest;top=0;left=0;right=0;bottom=0;" parent="TcTSat4PmSnbktt4OF8P-86" vertex="1">
          <mxGeometry y="455" width="296.28" height="100" as="geometry" />
        </mxCell>
        <mxCell id="TcTSat4PmSnbktt4OF8P-100" value="" style="shape=partialRectangle;connectable=0;fillColor=none;top=0;left=0;bottom=0;right=0;editable=1;overflow=hidden;" parent="TcTSat4PmSnbktt4OF8P-99" vertex="1">
          <mxGeometry width="30" height="100" as="geometry">
            <mxRectangle width="30" height="100" as="alternateBounds" />
          </mxGeometry>
        </mxCell>
        <mxCell id="TcTSat4PmSnbktt4OF8P-101" value="event_text, text, not null" style="shape=partialRectangle;connectable=0;fillColor=none;top=0;left=0;bottom=0;right=0;align=left;spacingLeft=6;overflow=hidden;fontSize=25;" parent="TcTSat4PmSnbktt4OF8P-99" vertex="1">
          <mxGeometry x="30" width="266.28" height="100" as="geometry">
            <mxRectangle width="266.28" height="100" as="alternateBounds" />
          </mxGeometry>
        </mxCell>
        <mxCell id="TcTSat4PmSnbktt4OF8P-102" value="" style="shape=tableRow;horizontal=0;startSize=0;swimlaneHead=0;swimlaneBody=0;fillColor=none;collapsible=0;dropTarget=0;points=[[0,0.5],[1,0.5]];portConstraint=eastwest;top=0;left=0;right=0;bottom=0;" parent="TcTSat4PmSnbktt4OF8P-86" vertex="1">
          <mxGeometry y="555" width="296.28" height="100" as="geometry" />
        </mxCell>
        <mxCell id="TcTSat4PmSnbktt4OF8P-103" value="" style="shape=partialRectangle;connectable=0;fillColor=none;top=0;left=0;bottom=0;right=0;editable=1;overflow=hidden;" parent="TcTSat4PmSnbktt4OF8P-102" vertex="1">
          <mxGeometry width="30" height="100" as="geometry">
            <mxRectangle width="30" height="100" as="alternateBounds" />
          </mxGeometry>
        </mxCell>
        <mxCell id="TcTSat4PmSnbktt4OF8P-104" value="event_description, text, null" style="shape=partialRectangle;connectable=0;fillColor=none;top=0;left=0;bottom=0;right=0;align=left;spacingLeft=6;overflow=hidden;fontSize=25;" parent="TcTSat4PmSnbktt4OF8P-102" vertex="1">
          <mxGeometry x="30" width="266.28" height="100" as="geometry">
            <mxRectangle width="266.28" height="100" as="alternateBounds" />
          </mxGeometry>
        </mxCell>
        <mxCell id="TcTSat4PmSnbktt4OF8P-105" value="" style="shape=tableRow;horizontal=0;startSize=0;swimlaneHead=0;swimlaneBody=0;fillColor=none;collapsible=0;dropTarget=0;points=[[0,0.5],[1,0.5]];portConstraint=eastwest;top=0;left=0;right=0;bottom=0;" parent="TcTSat4PmSnbktt4OF8P-86" vertex="1">
          <mxGeometry y="655" width="296.28" height="100" as="geometry" />
        </mxCell>
        <mxCell id="TcTSat4PmSnbktt4OF8P-106" value="" style="shape=partialRectangle;connectable=0;fillColor=none;top=0;left=0;bottom=0;right=0;editable=1;overflow=hidden;" parent="TcTSat4PmSnbktt4OF8P-105" vertex="1">
          <mxGeometry width="30" height="100" as="geometry">
            <mxRectangle width="30" height="100" as="alternateBounds" />
          </mxGeometry>
        </mxCell>
        <mxCell id="TcTSat4PmSnbktt4OF8P-107" value="event_date, timestamp, not null" style="shape=partialRectangle;connectable=0;fillColor=none;top=0;left=0;bottom=0;right=0;align=left;spacingLeft=6;overflow=hidden;fontSize=25;" parent="TcTSat4PmSnbktt4OF8P-105" vertex="1">
          <mxGeometry x="30" width="266.28" height="100" as="geometry">
            <mxRectangle width="266.28" height="100" as="alternateBounds" />
          </mxGeometry>
        </mxCell>
        <mxCell id="TcTSat4PmSnbktt4OF8P-108" value="event_priority" style="shape=table;startSize=55;container=1;collapsible=1;childLayout=tableLayout;fixedRows=1;rowLines=0;fontStyle=1;align=center;resizeLast=1;fontSize=26;comic=0;strokeWidth=4;" parent="1" vertex="1">
          <mxGeometry x="1318.9" y="1866.1399999999999" width="309.75" height="355" as="geometry" />
        </mxCell>
        <mxCell id="TcTSat4PmSnbktt4OF8P-109" value="" style="shape=tableRow;horizontal=0;startSize=0;swimlaneHead=0;swimlaneBody=0;fillColor=none;collapsible=0;dropTarget=0;points=[[0,0.5],[1,0.5]];portConstraint=eastwest;top=0;left=0;right=0;bottom=1;" parent="TcTSat4PmSnbktt4OF8P-108" vertex="1">
          <mxGeometry y="55" width="309.75" height="100" as="geometry" />
        </mxCell>
        <mxCell id="TcTSat4PmSnbktt4OF8P-110" value="PK" style="shape=partialRectangle;connectable=0;fillColor=none;top=0;left=0;bottom=0;right=0;fontStyle=1;overflow=hidden;fontSize=18;" parent="TcTSat4PmSnbktt4OF8P-109" vertex="1">
          <mxGeometry width="30" height="100" as="geometry">
            <mxRectangle width="30" height="100" as="alternateBounds" />
          </mxGeometry>
        </mxCell>
        <mxCell id="TcTSat4PmSnbktt4OF8P-111" value="id, uuid" style="shape=partialRectangle;connectable=0;fillColor=none;top=0;left=0;bottom=0;right=0;align=left;spacingLeft=6;fontStyle=5;overflow=hidden;fontSize=25;" parent="TcTSat4PmSnbktt4OF8P-109" vertex="1">
          <mxGeometry x="30" width="279.75" height="100" as="geometry">
            <mxRectangle width="279.75" height="100" as="alternateBounds" />
          </mxGeometry>
        </mxCell>
        <mxCell id="TcTSat4PmSnbktt4OF8P-112" value="" style="shape=tableRow;horizontal=0;startSize=0;swimlaneHead=0;swimlaneBody=0;fillColor=none;collapsible=0;dropTarget=0;points=[[0,0.5],[1,0.5]];portConstraint=eastwest;top=0;left=0;right=0;bottom=0;" parent="TcTSat4PmSnbktt4OF8P-108" vertex="1">
          <mxGeometry y="155" width="309.75" height="100" as="geometry" />
        </mxCell>
        <mxCell id="TcTSat4PmSnbktt4OF8P-113" value="" style="shape=partialRectangle;connectable=0;fillColor=none;top=0;left=0;bottom=0;right=0;editable=1;overflow=hidden;" parent="TcTSat4PmSnbktt4OF8P-112" vertex="1">
          <mxGeometry width="30" height="100" as="geometry">
            <mxRectangle width="30" height="100" as="alternateBounds" />
          </mxGeometry>
        </mxCell>
        <mxCell id="TcTSat4PmSnbktt4OF8P-114" value="priority_name, text, not null" style="shape=partialRectangle;connectable=0;fillColor=none;top=0;left=0;bottom=0;right=0;align=left;spacingLeft=6;overflow=hidden;fontSize=25;" parent="TcTSat4PmSnbktt4OF8P-112" vertex="1">
          <mxGeometry x="30" width="279.75" height="100" as="geometry">
            <mxRectangle width="279.75" height="100" as="alternateBounds" />
          </mxGeometry>
        </mxCell>
        <mxCell id="TcTSat4PmSnbktt4OF8P-115" value="" style="shape=tableRow;horizontal=0;startSize=0;swimlaneHead=0;swimlaneBody=0;fillColor=none;collapsible=0;dropTarget=0;points=[[0,0.5],[1,0.5]];portConstraint=eastwest;top=0;left=0;right=0;bottom=0;" parent="TcTSat4PmSnbktt4OF8P-108" vertex="1">
          <mxGeometry y="255" width="309.75" height="100" as="geometry" />
        </mxCell>
        <mxCell id="TcTSat4PmSnbktt4OF8P-116" value="" style="shape=partialRectangle;connectable=0;fillColor=none;top=0;left=0;bottom=0;right=0;editable=1;overflow=hidden;" parent="TcTSat4PmSnbktt4OF8P-115" vertex="1">
          <mxGeometry width="30" height="100" as="geometry">
            <mxRectangle width="30" height="100" as="alternateBounds" />
          </mxGeometry>
        </mxCell>
        <mxCell id="TcTSat4PmSnbktt4OF8P-117" value="priority_description, text, not null" style="shape=partialRectangle;connectable=0;fillColor=none;top=0;left=0;bottom=0;right=0;align=left;spacingLeft=6;overflow=hidden;fontSize=25;" parent="TcTSat4PmSnbktt4OF8P-115" vertex="1">
          <mxGeometry x="30" width="279.75" height="100" as="geometry">
            <mxRectangle width="279.75" height="100" as="alternateBounds" />
          </mxGeometry>
        </mxCell>
        <mxCell id="TcTSat4PmSnbktt4OF8P-118" value="" style="edgeStyle=elbowEdgeStyle;fontSize=12;html=1;endArrow=ERoneToMany;rounded=0;entryX=0;entryY=0.5;entryDx=0;entryDy=0;exitX=1;exitY=0.5;exitDx=0;exitDy=0;strokeWidth=4;" parent="1" source="TcTSat4PmSnbktt4OF8P-3" target="TcTSat4PmSnbktt4OF8P-35" edge="1">
          <mxGeometry width="100" height="100" relative="1" as="geometry">
            <mxPoint x="652.0448076829261" y="3336.434262295082" as="sourcePoint" />
            <mxPoint x="786.7191979268284" y="3092.1473770491802" as="targetPoint" />
          </mxGeometry>
        </mxCell>
        <mxCell id="TcTSat4PmSnbktt4OF8P-119" value="" style="edgeStyle=elbowEdgeStyle;fontSize=12;html=1;endArrow=ERoneToMany;rounded=0;entryX=0;entryY=0.5;entryDx=0;entryDy=0;exitX=1;exitY=0.5;exitDx=0;exitDy=0;strokeWidth=4;" parent="1" source="TcTSat4PmSnbktt4OF8P-32" target="TcTSat4PmSnbktt4OF8P-28" edge="1">
          <mxGeometry width="100" height="100" relative="1" as="geometry">
            <mxPoint x="1096.470295487804" y="3385.2916393442624" as="sourcePoint" />
            <mxPoint x="1231.1446857317064" y="3141.0047540983605" as="targetPoint" />
          </mxGeometry>
        </mxCell>
        <mxCell id="TcTSat4PmSnbktt4OF8P-120" value="" style="edgeStyle=orthogonalEdgeStyle;fontSize=12;html=1;endArrow=ERoneToMany;rounded=0;exitX=0;exitY=0.5;exitDx=0;exitDy=0;entryX=0;entryY=0.5;entryDx=0;entryDy=0;strokeWidth=4;" parent="1" source="TcTSat4PmSnbktt4OF8P-74" target="TcTSat4PmSnbktt4OF8P-6" edge="1">
          <mxGeometry width="100" height="100" relative="1" as="geometry">
            <mxPoint x="-268.19876829268287" y="2921.1465573770492" as="sourcePoint" />
            <mxPoint x="570.817661169904" y="917.9940983606555" as="targetPoint" />
            <Array as="points">
              <mxPoint x="59" y="1487" />
              <mxPoint x="59" y="681" />
            </Array>
          </mxGeometry>
        </mxCell>
        <mxCell id="TcTSat4PmSnbktt4OF8P-134" value="user" style="shape=table;startSize=55;container=1;collapsible=1;childLayout=tableLayout;fixedRows=1;rowLines=0;fontStyle=1;align=center;resizeLast=1;fontSize=26;comic=0;strokeWidth=4;" parent="1" vertex="1">
          <mxGeometry x="1874.01" y="2094.48" width="276.08" height="861.18" as="geometry" />
        </mxCell>
        <mxCell id="TcTSat4PmSnbktt4OF8P-135" value="" style="shape=tableRow;horizontal=0;startSize=0;swimlaneHead=0;swimlaneBody=0;fillColor=none;collapsible=0;dropTarget=0;points=[[0,0.5],[1,0.5]];portConstraint=eastwest;top=0;left=0;right=0;bottom=1;" parent="TcTSat4PmSnbktt4OF8P-134" vertex="1">
          <mxGeometry y="55" width="276.08" height="100" as="geometry" />
        </mxCell>
        <mxCell id="TcTSat4PmSnbktt4OF8P-136" value="PK" style="shape=partialRectangle;connectable=0;fillColor=none;top=0;left=0;bottom=0;right=0;fontStyle=1;overflow=hidden;fontSize=18;" parent="TcTSat4PmSnbktt4OF8P-135" vertex="1">
          <mxGeometry width="30" height="100" as="geometry">
            <mxRectangle width="30" height="100" as="alternateBounds" />
          </mxGeometry>
        </mxCell>
        <mxCell id="TcTSat4PmSnbktt4OF8P-137" value="id, uuid" style="shape=partialRectangle;connectable=0;fillColor=none;top=0;left=0;bottom=0;right=0;align=left;spacingLeft=6;fontStyle=5;overflow=hidden;fontSize=25;" parent="TcTSat4PmSnbktt4OF8P-135" vertex="1">
          <mxGeometry x="30" width="246.07999999999998" height="100" as="geometry">
            <mxRectangle width="246.07999999999998" height="100" as="alternateBounds" />
          </mxGeometry>
        </mxCell>
        <mxCell id="TcTSat4PmSnbktt4OF8P-138" value="" style="shape=tableRow;horizontal=0;startSize=0;swimlaneHead=0;swimlaneBody=0;fillColor=none;collapsible=0;dropTarget=0;points=[[0,0.5],[1,0.5]];portConstraint=eastwest;top=0;left=0;right=0;bottom=0;" parent="TcTSat4PmSnbktt4OF8P-134" vertex="1">
          <mxGeometry y="155" width="276.08" height="100" as="geometry" />
        </mxCell>
        <mxCell id="TcTSat4PmSnbktt4OF8P-139" value="FK" style="shape=partialRectangle;connectable=0;fillColor=none;top=0;left=0;bottom=0;right=0;fontStyle=0;overflow=hidden;fontSize=18;" parent="TcTSat4PmSnbktt4OF8P-138" vertex="1">
          <mxGeometry width="30" height="100" as="geometry">
            <mxRectangle width="30" height="100" as="alternateBounds" />
          </mxGeometry>
        </mxCell>
        <mxCell id="TcTSat4PmSnbktt4OF8P-140" value="account_id, uuid, not null" style="shape=partialRectangle;connectable=0;fillColor=none;top=0;left=0;bottom=0;right=0;align=left;spacingLeft=6;fontStyle=0;overflow=hidden;fontSize=25;" parent="TcTSat4PmSnbktt4OF8P-138" vertex="1">
          <mxGeometry x="30" width="246.07999999999998" height="100" as="geometry">
            <mxRectangle width="246.07999999999998" height="100" as="alternateBounds" />
          </mxGeometry>
        </mxCell>
        <mxCell id="TcTSat4PmSnbktt4OF8P-141" value="" style="shape=tableRow;horizontal=0;startSize=0;swimlaneHead=0;swimlaneBody=0;fillColor=none;collapsible=0;dropTarget=0;points=[[0,0.5],[1,0.5]];portConstraint=eastwest;top=0;left=0;right=0;bottom=0;" parent="TcTSat4PmSnbktt4OF8P-134" vertex="1">
          <mxGeometry y="255" width="276.08" height="100" as="geometry" />
        </mxCell>
        <mxCell id="TcTSat4PmSnbktt4OF8P-142" value="FK" style="shape=partialRectangle;connectable=0;fillColor=none;top=0;left=0;bottom=0;right=0;fontStyle=0;overflow=hidden;fontSize=18;" parent="TcTSat4PmSnbktt4OF8P-141" vertex="1">
          <mxGeometry width="30" height="100" as="geometry">
            <mxRectangle width="30" height="100" as="alternateBounds" />
          </mxGeometry>
        </mxCell>
        <mxCell id="TcTSat4PmSnbktt4OF8P-143" value="role_id, uuid, not null" style="shape=partialRectangle;connectable=0;fillColor=none;top=0;left=0;bottom=0;right=0;align=left;spacingLeft=6;fontStyle=0;overflow=hidden;fontSize=25;" parent="TcTSat4PmSnbktt4OF8P-141" vertex="1">
          <mxGeometry x="30" width="246.07999999999998" height="100" as="geometry">
            <mxRectangle width="246.07999999999998" height="100" as="alternateBounds" />
          </mxGeometry>
        </mxCell>
        <mxCell id="TcTSat4PmSnbktt4OF8P-144" value="" style="shape=tableRow;horizontal=0;startSize=0;swimlaneHead=0;swimlaneBody=0;fillColor=none;collapsible=0;dropTarget=0;points=[[0,0.5],[1,0.5]];portConstraint=eastwest;top=0;left=0;right=0;bottom=0;" parent="TcTSat4PmSnbktt4OF8P-134" vertex="1">
          <mxGeometry y="355" width="276.08" height="100" as="geometry" />
        </mxCell>
        <mxCell id="TcTSat4PmSnbktt4OF8P-145" value="FK" style="shape=partialRectangle;connectable=0;fillColor=none;top=0;left=0;bottom=0;right=0;fontStyle=0;overflow=hidden;fontSize=18;" parent="TcTSat4PmSnbktt4OF8P-144" vertex="1">
          <mxGeometry width="30" height="100" as="geometry">
            <mxRectangle width="30" height="100" as="alternateBounds" />
          </mxGeometry>
        </mxCell>
        <mxCell id="TcTSat4PmSnbktt4OF8P-146" value="sex_id, int, not null" style="shape=partialRectangle;connectable=0;fillColor=none;top=0;left=0;bottom=0;right=0;align=left;spacingLeft=6;fontStyle=0;overflow=hidden;fontSize=25;" parent="TcTSat4PmSnbktt4OF8P-144" vertex="1">
          <mxGeometry x="30" width="246.07999999999998" height="100" as="geometry">
            <mxRectangle width="246.07999999999998" height="100" as="alternateBounds" />
          </mxGeometry>
        </mxCell>
        <mxCell id="TcTSat4PmSnbktt4OF8P-147" value="" style="shape=tableRow;horizontal=0;startSize=0;swimlaneHead=0;swimlaneBody=0;fillColor=none;collapsible=0;dropTarget=0;points=[[0,0.5],[1,0.5]];portConstraint=eastwest;top=0;left=0;right=0;bottom=0;" parent="TcTSat4PmSnbktt4OF8P-134" vertex="1">
          <mxGeometry y="455" width="276.08" height="100" as="geometry" />
        </mxCell>
        <mxCell id="TcTSat4PmSnbktt4OF8P-148" value="FK" style="shape=partialRectangle;connectable=0;fillColor=none;top=0;left=0;bottom=0;right=0;fontStyle=0;overflow=hidden;fontSize=18;" parent="TcTSat4PmSnbktt4OF8P-147" vertex="1">
          <mxGeometry width="30" height="100" as="geometry">
            <mxRectangle width="30" height="100" as="alternateBounds" />
          </mxGeometry>
        </mxCell>
        <mxCell id="TcTSat4PmSnbktt4OF8P-149" value="group_id, uuid, not null" style="shape=partialRectangle;connectable=0;fillColor=none;top=0;left=0;bottom=0;right=0;align=left;spacingLeft=6;fontStyle=0;overflow=hidden;fontSize=25;" parent="TcTSat4PmSnbktt4OF8P-147" vertex="1">
          <mxGeometry x="30" width="246.07999999999998" height="100" as="geometry">
            <mxRectangle width="246.07999999999998" height="100" as="alternateBounds" />
          </mxGeometry>
        </mxCell>
        <mxCell id="TcTSat4PmSnbktt4OF8P-150" value="" style="shape=tableRow;horizontal=0;startSize=0;swimlaneHead=0;swimlaneBody=0;fillColor=none;collapsible=0;dropTarget=0;points=[[0,0.5],[1,0.5]];portConstraint=eastwest;top=0;left=0;right=0;bottom=0;" parent="TcTSat4PmSnbktt4OF8P-134" vertex="1">
          <mxGeometry y="555" width="276.08" height="100" as="geometry" />
        </mxCell>
        <mxCell id="TcTSat4PmSnbktt4OF8P-151" value="" style="shape=partialRectangle;connectable=0;fillColor=none;top=0;left=0;bottom=0;right=0;editable=1;overflow=hidden;" parent="TcTSat4PmSnbktt4OF8P-150" vertex="1">
          <mxGeometry width="30" height="100" as="geometry">
            <mxRectangle width="30" height="100" as="alternateBounds" />
          </mxGeometry>
        </mxCell>
        <mxCell id="TcTSat4PmSnbktt4OF8P-152" value="first_name, text, not null" style="shape=partialRectangle;connectable=0;fillColor=none;top=0;left=0;bottom=0;right=0;align=left;spacingLeft=6;overflow=hidden;fontSize=25;" parent="TcTSat4PmSnbktt4OF8P-150" vertex="1">
          <mxGeometry x="30" width="246.07999999999998" height="100" as="geometry">
            <mxRectangle width="246.07999999999998" height="100" as="alternateBounds" />
          </mxGeometry>
        </mxCell>
        <mxCell id="TcTSat4PmSnbktt4OF8P-153" value="" style="shape=tableRow;horizontal=0;startSize=0;swimlaneHead=0;swimlaneBody=0;fillColor=none;collapsible=0;dropTarget=0;points=[[0,0.5],[1,0.5]];portConstraint=eastwest;top=0;left=0;right=0;bottom=0;" parent="TcTSat4PmSnbktt4OF8P-134" vertex="1">
          <mxGeometry y="655" width="276.08" height="100" as="geometry" />
        </mxCell>
        <mxCell id="TcTSat4PmSnbktt4OF8P-154" value="" style="shape=partialRectangle;connectable=0;fillColor=none;top=0;left=0;bottom=0;right=0;editable=1;overflow=hidden;" parent="TcTSat4PmSnbktt4OF8P-153" vertex="1">
          <mxGeometry width="30" height="100" as="geometry">
            <mxRectangle width="30" height="100" as="alternateBounds" />
          </mxGeometry>
        </mxCell>
        <mxCell id="TcTSat4PmSnbktt4OF8P-155" value="last_name, text, not null" style="shape=partialRectangle;connectable=0;fillColor=none;top=0;left=0;bottom=0;right=0;align=left;spacingLeft=6;overflow=hidden;fontSize=25;" parent="TcTSat4PmSnbktt4OF8P-153" vertex="1">
          <mxGeometry x="30" width="246.07999999999998" height="100" as="geometry">
            <mxRectangle width="246.07999999999998" height="100" as="alternateBounds" />
          </mxGeometry>
        </mxCell>
        <mxCell id="TcTSat4PmSnbktt4OF8P-156" value="" style="shape=tableRow;horizontal=0;startSize=0;swimlaneHead=0;swimlaneBody=0;fillColor=none;collapsible=0;dropTarget=0;points=[[0,0.5],[1,0.5]];portConstraint=eastwest;top=0;left=0;right=0;bottom=0;" parent="TcTSat4PmSnbktt4OF8P-134" vertex="1">
          <mxGeometry y="755" width="276.08" height="100" as="geometry" />
        </mxCell>
        <mxCell id="TcTSat4PmSnbktt4OF8P-157" value="" style="shape=partialRectangle;connectable=0;fillColor=none;top=0;left=0;bottom=0;right=0;editable=1;overflow=hidden;" parent="TcTSat4PmSnbktt4OF8P-156" vertex="1">
          <mxGeometry width="30" height="100" as="geometry">
            <mxRectangle width="30" height="100" as="alternateBounds" />
          </mxGeometry>
        </mxCell>
        <mxCell id="TcTSat4PmSnbktt4OF8P-158" value="avatar_link, text, not null" style="shape=partialRectangle;connectable=0;fillColor=none;top=0;left=0;bottom=0;right=0;align=left;spacingLeft=6;overflow=hidden;fontSize=25;" parent="TcTSat4PmSnbktt4OF8P-156" vertex="1">
          <mxGeometry x="30" width="246.07999999999998" height="100" as="geometry">
            <mxRectangle width="246.07999999999998" height="100" as="alternateBounds" />
          </mxGeometry>
        </mxCell>
        <mxCell id="TcTSat4PmSnbktt4OF8P-169" value="quiz_result" style="shape=table;startSize=55;container=1;collapsible=1;childLayout=tableLayout;fixedRows=1;rowLines=0;fontStyle=1;align=center;resizeLast=1;fontSize=26;comic=0;strokeWidth=4;" parent="1" vertex="1">
          <mxGeometry x="751.9699999999999" y="736.2199999999999" width="336.69" height="555" as="geometry" />
        </mxCell>
        <mxCell id="TcTSat4PmSnbktt4OF8P-170" value="" style="shape=tableRow;horizontal=0;startSize=0;swimlaneHead=0;swimlaneBody=0;fillColor=none;collapsible=0;dropTarget=0;points=[[0,0.5],[1,0.5]];portConstraint=eastwest;top=0;left=0;right=0;bottom=1;" parent="TcTSat4PmSnbktt4OF8P-169" vertex="1">
          <mxGeometry y="55" width="336.69" height="100" as="geometry" />
        </mxCell>
        <mxCell id="TcTSat4PmSnbktt4OF8P-171" value="PK" style="shape=partialRectangle;connectable=0;fillColor=none;top=0;left=0;bottom=0;right=0;fontStyle=1;overflow=hidden;fontSize=18;" parent="TcTSat4PmSnbktt4OF8P-170" vertex="1">
          <mxGeometry width="30" height="100" as="geometry">
            <mxRectangle width="30" height="100" as="alternateBounds" />
          </mxGeometry>
        </mxCell>
        <mxCell id="TcTSat4PmSnbktt4OF8P-172" value="id, uuid" style="shape=partialRectangle;connectable=0;fillColor=none;top=0;left=0;bottom=0;right=0;align=left;spacingLeft=6;fontStyle=5;overflow=hidden;fontSize=25;" parent="TcTSat4PmSnbktt4OF8P-170" vertex="1">
          <mxGeometry x="30" width="306.69" height="100" as="geometry">
            <mxRectangle width="306.69" height="100" as="alternateBounds" />
          </mxGeometry>
        </mxCell>
        <mxCell id="TcTSat4PmSnbktt4OF8P-173" value="" style="shape=tableRow;horizontal=0;startSize=0;swimlaneHead=0;swimlaneBody=0;fillColor=none;collapsible=0;dropTarget=0;points=[[0,0.5],[1,0.5]];portConstraint=eastwest;top=0;left=0;right=0;bottom=0;" parent="TcTSat4PmSnbktt4OF8P-169" vertex="1">
          <mxGeometry y="155" width="336.69" height="100" as="geometry" />
        </mxCell>
        <mxCell id="TcTSat4PmSnbktt4OF8P-174" value="FK" style="shape=partialRectangle;connectable=0;fillColor=none;top=0;left=0;bottom=0;right=0;fontStyle=0;overflow=hidden;fontSize=18;" parent="TcTSat4PmSnbktt4OF8P-173" vertex="1">
          <mxGeometry width="30" height="100" as="geometry">
            <mxRectangle width="30" height="100" as="alternateBounds" />
          </mxGeometry>
        </mxCell>
        <mxCell id="TcTSat4PmSnbktt4OF8P-175" value="quiz_id, uuid, not null" style="shape=partialRectangle;connectable=0;fillColor=none;top=0;left=0;bottom=0;right=0;align=left;spacingLeft=6;fontStyle=0;overflow=hidden;fontSize=25;" parent="TcTSat4PmSnbktt4OF8P-173" vertex="1">
          <mxGeometry x="30" width="306.69" height="100" as="geometry">
            <mxRectangle width="306.69" height="100" as="alternateBounds" />
          </mxGeometry>
        </mxCell>
        <mxCell id="TcTSat4PmSnbktt4OF8P-176" value="" style="shape=tableRow;horizontal=0;startSize=0;swimlaneHead=0;swimlaneBody=0;fillColor=none;collapsible=0;dropTarget=0;points=[[0,0.5],[1,0.5]];portConstraint=eastwest;top=0;left=0;right=0;bottom=0;" parent="TcTSat4PmSnbktt4OF8P-169" vertex="1">
          <mxGeometry y="255" width="336.69" height="100" as="geometry" />
        </mxCell>
        <mxCell id="TcTSat4PmSnbktt4OF8P-177" value="FK" style="shape=partialRectangle;connectable=0;fillColor=none;top=0;left=0;bottom=0;right=0;fontStyle=0;overflow=hidden;fontSize=18;" parent="TcTSat4PmSnbktt4OF8P-176" vertex="1">
          <mxGeometry width="30" height="100" as="geometry">
            <mxRectangle width="30" height="100" as="alternateBounds" />
          </mxGeometry>
        </mxCell>
        <mxCell id="TcTSat4PmSnbktt4OF8P-178" value="user_id, uuid, not null" style="shape=partialRectangle;connectable=0;fillColor=none;top=0;left=0;bottom=0;right=0;align=left;spacingLeft=6;fontStyle=0;overflow=hidden;fontSize=25;" parent="TcTSat4PmSnbktt4OF8P-176" vertex="1">
          <mxGeometry x="30" width="306.69" height="100" as="geometry">
            <mxRectangle width="306.69" height="100" as="alternateBounds" />
          </mxGeometry>
        </mxCell>
        <mxCell id="TcTSat4PmSnbktt4OF8P-179" value="" style="shape=tableRow;horizontal=0;startSize=0;swimlaneHead=0;swimlaneBody=0;fillColor=none;collapsible=0;dropTarget=0;points=[[0,0.5],[1,0.5]];portConstraint=eastwest;top=0;left=0;right=0;bottom=0;" parent="TcTSat4PmSnbktt4OF8P-169" vertex="1">
          <mxGeometry y="355" width="336.69" height="100" as="geometry" />
        </mxCell>
        <mxCell id="TcTSat4PmSnbktt4OF8P-180" value="" style="shape=partialRectangle;connectable=0;fillColor=none;top=0;left=0;bottom=0;right=0;editable=1;overflow=hidden;" parent="TcTSat4PmSnbktt4OF8P-179" vertex="1">
          <mxGeometry width="30" height="100" as="geometry">
            <mxRectangle width="30" height="100" as="alternateBounds" />
          </mxGeometry>
        </mxCell>
        <mxCell id="TcTSat4PmSnbktt4OF8P-181" value="result, int, null" style="shape=partialRectangle;connectable=0;fillColor=none;top=0;left=0;bottom=0;right=0;align=left;spacingLeft=6;overflow=hidden;fontSize=25;" parent="TcTSat4PmSnbktt4OF8P-179" vertex="1">
          <mxGeometry x="30" width="306.69" height="100" as="geometry">
            <mxRectangle width="306.69" height="100" as="alternateBounds" />
          </mxGeometry>
        </mxCell>
        <mxCell id="TcTSat4PmSnbktt4OF8P-182" value="" style="shape=tableRow;horizontal=0;startSize=0;swimlaneHead=0;swimlaneBody=0;fillColor=none;collapsible=0;dropTarget=0;points=[[0,0.5],[1,0.5]];portConstraint=eastwest;top=0;left=0;right=0;bottom=0;" parent="TcTSat4PmSnbktt4OF8P-169" vertex="1">
          <mxGeometry y="455" width="336.69" height="100" as="geometry" />
        </mxCell>
        <mxCell id="TcTSat4PmSnbktt4OF8P-183" value="" style="shape=partialRectangle;connectable=0;fillColor=none;top=0;left=0;bottom=0;right=0;editable=1;overflow=hidden;" parent="TcTSat4PmSnbktt4OF8P-182" vertex="1">
          <mxGeometry width="30" height="100" as="geometry">
            <mxRectangle width="30" height="100" as="alternateBounds" />
          </mxGeometry>
        </mxCell>
        <mxCell id="TcTSat4PmSnbktt4OF8P-184" value="quiz_submit_date, timestamp, not null" style="shape=partialRectangle;connectable=0;fillColor=none;top=0;left=0;bottom=0;right=0;align=left;spacingLeft=6;overflow=hidden;fontSize=25;" parent="TcTSat4PmSnbktt4OF8P-182" vertex="1">
          <mxGeometry x="30" width="306.69" height="100" as="geometry">
            <mxRectangle width="306.69" height="100" as="alternateBounds" />
          </mxGeometry>
        </mxCell>
        <mxCell id="TcTSat4PmSnbktt4OF8P-185" value="quiz_history" style="shape=table;startSize=55;container=1;collapsible=1;childLayout=tableLayout;fixedRows=1;rowLines=0;fontStyle=1;align=center;resizeLast=1;fontSize=26;comic=0;strokeWidth=4;" parent="1" vertex="1">
          <mxGeometry x="1822.84" y="767.71" width="336.69" height="455" as="geometry" />
        </mxCell>
        <mxCell id="TcTSat4PmSnbktt4OF8P-186" value="" style="shape=tableRow;horizontal=0;startSize=0;swimlaneHead=0;swimlaneBody=0;fillColor=none;collapsible=0;dropTarget=0;points=[[0,0.5],[1,0.5]];portConstraint=eastwest;top=0;left=0;right=0;bottom=1;" parent="TcTSat4PmSnbktt4OF8P-185" vertex="1">
          <mxGeometry y="55" width="336.69" height="100" as="geometry" />
        </mxCell>
        <mxCell id="TcTSat4PmSnbktt4OF8P-187" value="PK" style="shape=partialRectangle;connectable=0;fillColor=none;top=0;left=0;bottom=0;right=0;fontStyle=1;overflow=hidden;fontSize=18;" parent="TcTSat4PmSnbktt4OF8P-186" vertex="1">
          <mxGeometry width="30" height="100" as="geometry">
            <mxRectangle width="30" height="100" as="alternateBounds" />
          </mxGeometry>
        </mxCell>
        <mxCell id="TcTSat4PmSnbktt4OF8P-188" value="id, uuid" style="shape=partialRectangle;connectable=0;fillColor=none;top=0;left=0;bottom=0;right=0;align=left;spacingLeft=6;fontStyle=5;overflow=hidden;fontSize=25;" parent="TcTSat4PmSnbktt4OF8P-186" vertex="1">
          <mxGeometry x="30" width="306.69" height="100" as="geometry">
            <mxRectangle width="306.69" height="100" as="alternateBounds" />
          </mxGeometry>
        </mxCell>
        <mxCell id="TcTSat4PmSnbktt4OF8P-189" value="" style="shape=tableRow;horizontal=0;startSize=0;swimlaneHead=0;swimlaneBody=0;fillColor=none;collapsible=0;dropTarget=0;points=[[0,0.5],[1,0.5]];portConstraint=eastwest;top=0;left=0;right=0;bottom=0;" parent="TcTSat4PmSnbktt4OF8P-185" vertex="1">
          <mxGeometry y="155" width="336.69" height="100" as="geometry" />
        </mxCell>
        <mxCell id="TcTSat4PmSnbktt4OF8P-190" value="FK" style="shape=partialRectangle;connectable=0;fillColor=none;top=0;left=0;bottom=0;right=0;fontStyle=0;overflow=hidden;fontSize=18;" parent="TcTSat4PmSnbktt4OF8P-189" vertex="1">
          <mxGeometry width="30" height="100" as="geometry">
            <mxRectangle width="30" height="100" as="alternateBounds" />
          </mxGeometry>
        </mxCell>
        <mxCell id="TcTSat4PmSnbktt4OF8P-191" value="question_id, uuid, not null " style="shape=partialRectangle;connectable=0;fillColor=none;top=0;left=0;bottom=0;right=0;align=left;spacingLeft=6;fontStyle=0;overflow=hidden;fontSize=25;" parent="TcTSat4PmSnbktt4OF8P-189" vertex="1">
          <mxGeometry x="30" width="306.69" height="100" as="geometry">
            <mxRectangle width="306.69" height="100" as="alternateBounds" />
          </mxGeometry>
        </mxCell>
        <mxCell id="TcTSat4PmSnbktt4OF8P-192" value="" style="shape=tableRow;horizontal=0;startSize=0;swimlaneHead=0;swimlaneBody=0;fillColor=none;collapsible=0;dropTarget=0;points=[[0,0.5],[1,0.5]];portConstraint=eastwest;top=0;left=0;right=0;bottom=0;" parent="TcTSat4PmSnbktt4OF8P-185" vertex="1">
          <mxGeometry y="255" width="336.69" height="100" as="geometry" />
        </mxCell>
        <mxCell id="TcTSat4PmSnbktt4OF8P-193" value="FK" style="shape=partialRectangle;connectable=0;fillColor=none;top=0;left=0;bottom=0;right=0;fontStyle=0;overflow=hidden;fontSize=18;" parent="TcTSat4PmSnbktt4OF8P-192" vertex="1">
          <mxGeometry width="30" height="100" as="geometry">
            <mxRectangle width="30" height="100" as="alternateBounds" />
          </mxGeometry>
        </mxCell>
        <mxCell id="TcTSat4PmSnbktt4OF8P-194" value="selected_variant_id, uuid, not null" style="shape=partialRectangle;connectable=0;fillColor=none;top=0;left=0;bottom=0;right=0;align=left;spacingLeft=6;fontStyle=0;overflow=hidden;fontSize=25;" parent="TcTSat4PmSnbktt4OF8P-192" vertex="1">
          <mxGeometry x="30" width="306.69" height="100" as="geometry">
            <mxRectangle width="306.69" height="100" as="alternateBounds" />
          </mxGeometry>
        </mxCell>
        <mxCell id="TcTSat4PmSnbktt4OF8P-195" value="" style="shape=tableRow;horizontal=0;startSize=0;swimlaneHead=0;swimlaneBody=0;fillColor=none;collapsible=0;dropTarget=0;points=[[0,0.5],[1,0.5]];portConstraint=eastwest;top=0;left=0;right=0;bottom=0;" parent="TcTSat4PmSnbktt4OF8P-185" vertex="1">
          <mxGeometry y="355" width="336.69" height="100" as="geometry" />
        </mxCell>
        <mxCell id="TcTSat4PmSnbktt4OF8P-196" value="FK" style="shape=partialRectangle;connectable=0;fillColor=none;top=0;left=0;bottom=0;right=0;fontStyle=0;overflow=hidden;fontSize=18;" parent="TcTSat4PmSnbktt4OF8P-195" vertex="1">
          <mxGeometry width="30" height="100" as="geometry">
            <mxRectangle width="30" height="100" as="alternateBounds" />
          </mxGeometry>
        </mxCell>
        <mxCell id="TcTSat4PmSnbktt4OF8P-197" value="user_id, uuid, not null" style="shape=partialRectangle;connectable=0;fillColor=none;top=0;left=0;bottom=0;right=0;align=left;spacingLeft=6;fontStyle=0;overflow=hidden;fontSize=25;" parent="TcTSat4PmSnbktt4OF8P-195" vertex="1">
          <mxGeometry x="30" width="306.69" height="100" as="geometry">
            <mxRectangle width="306.69" height="100" as="alternateBounds" />
          </mxGeometry>
        </mxCell>
        <mxCell id="TcTSat4PmSnbktt4OF8P-198" value="" style="edgeStyle=elbowEdgeStyle;fontSize=12;html=1;endArrow=ERoneToMany;rounded=0;entryX=0;entryY=0.5;entryDx=0;entryDy=0;exitX=1;exitY=0.5;exitDx=0;exitDy=0;strokeWidth=4;" parent="1" source="TcTSat4PmSnbktt4OF8P-32" target="TcTSat4PmSnbktt4OF8P-189" edge="1">
          <mxGeometry width="100" height="100" relative="1" as="geometry">
            <mxPoint x="1324.9992682926827" y="3556.2924590163934" as="sourcePoint" />
            <mxPoint x="1459.6736585365852" y="3312.0055737704915" as="targetPoint" />
            <Array as="points">
              <mxPoint x="1311" y="587" />
            </Array>
          </mxGeometry>
        </mxCell>
        <mxCell id="TcTSat4PmSnbktt4OF8P-199" value="" style="edgeStyle=elbowEdgeStyle;fontSize=12;html=1;endArrow=ERoneToMany;rounded=0;entryX=0;entryY=0.5;entryDx=0;entryDy=0;exitX=1;exitY=0.5;exitDx=0;exitDy=0;strokeWidth=4;" parent="1" source="TcTSat4PmSnbktt4OF8P-3" target="TcTSat4PmSnbktt4OF8P-173" edge="1">
          <mxGeometry width="100" height="100" relative="1" as="geometry">
            <mxPoint x="745.8993902439024" y="3336.434262295082" as="sourcePoint" />
            <mxPoint x="880.5737804878047" y="3092.1473770491802" as="targetPoint" />
          </mxGeometry>
        </mxCell>
        <mxCell id="TcTSat4PmSnbktt4OF8P-200" value="" style="edgeStyle=elbowEdgeStyle;fontSize=12;html=1;endArrow=ERoneToMany;rounded=0;entryX=1;entryY=0.5;entryDx=0;entryDy=0;exitX=1;exitY=0.5;exitDx=0;exitDy=0;strokeWidth=4;" parent="1" source="TcTSat4PmSnbktt4OF8P-19" target="TcTSat4PmSnbktt4OF8P-192" edge="1">
          <mxGeometry width="100" height="100" relative="1" as="geometry">
            <mxPoint x="2106.110731707317" y="160.70475409836038" as="sourcePoint" />
            <mxPoint x="2146.5130487804877" y="942.4227868852457" as="targetPoint" />
            <Array as="points">
              <mxPoint x="2240.785121951219" y="698.1359016393441" />
            </Array>
          </mxGeometry>
        </mxCell>
        <mxCell id="TcTSat4PmSnbktt4OF8P-222" value="" style="edgeStyle=elbowEdgeStyle;fontSize=12;html=1;endArrow=ERoneToMany;rounded=0;exitX=0;exitY=0.5;exitDx=0;exitDy=0;entryX=1;entryY=0.5;entryDx=0;entryDy=0;strokeWidth=4;" parent="1" source="TcTSat4PmSnbktt4OF8P-48" target="TcTSat4PmSnbktt4OF8P-77" edge="1">
          <mxGeometry width="100" height="100" relative="1" as="geometry">
            <mxPoint x="516.9529268292682" y="2163.857213114754" as="sourcePoint" />
            <mxPoint x="651.6273170731706" y="1919.5703278688522" as="targetPoint" />
          </mxGeometry>
        </mxCell>
        <mxCell id="TcTSat4PmSnbktt4OF8P-223" value="" style="edgeStyle=orthogonalEdgeStyle;fontSize=12;html=1;endArrow=ERoneToMany;rounded=0;exitX=1;exitY=0.5;exitDx=0;exitDy=0;entryX=0;entryY=0.5;entryDx=0;entryDy=0;elbow=vertical;strokeWidth=4;" parent="1" source="TcTSat4PmSnbktt4OF8P-48" target="TcTSat4PmSnbktt4OF8P-147" edge="1">
          <mxGeometry width="100" height="100" relative="1" as="geometry">
            <mxPoint x="988.3132926829267" y="2041.7137704918032" as="sourcePoint" />
            <mxPoint x="1122.9876829268292" y="1797.4268852459015" as="targetPoint" />
            <Array as="points">
              <mxPoint x="868" y="2599" />
            </Array>
          </mxGeometry>
        </mxCell>
        <mxCell id="TcTSat4PmSnbktt4OF8P-224" value="" style="edgeStyle=orthogonalEdgeStyle;fontSize=12;html=1;endArrow=ERoneToMany;rounded=0;exitX=1;exitY=0.5;exitDx=0;exitDy=0;strokeWidth=4;entryX=1;entryY=0.5;entryDx=0;entryDy=0;" parent="1" source="TcTSat4PmSnbktt4OF8P-135" target="TcTSat4PmSnbktt4OF8P-195" edge="1">
          <mxGeometry width="100" height="100" relative="1" as="geometry">
            <mxPoint x="1580.8806097560973" y="1870.712950819672" as="sourcePoint" />
            <mxPoint x="2193" y="1173" as="targetPoint" />
            <Array as="points">
              <mxPoint x="2232" y="2200" />
              <mxPoint x="2232" y="1173" />
            </Array>
          </mxGeometry>
        </mxCell>
        <mxCell id="TcTSat4PmSnbktt4OF8P-225" value="" style="edgeStyle=orthogonalEdgeStyle;fontSize=12;html=1;endArrow=ERoneToMany;rounded=0;exitX=1;exitY=0.5;exitDx=0;exitDy=0;entryX=1;entryY=0.5;entryDx=0;entryDy=0;elbow=vertical;strokeWidth=4;" parent="1" source="TcTSat4PmSnbktt4OF8P-135" target="TcTSat4PmSnbktt4OF8P-176" edge="1">
          <mxGeometry width="100" height="100" relative="1" as="geometry">
            <mxPoint x="920.9760975609754" y="1650.8547540983604" as="sourcePoint" />
            <mxPoint x="1055.650487804878" y="1406.5678688524588" as="targetPoint" />
            <Array as="points">
              <mxPoint x="2224" y="2200" />
              <mxPoint x="2224" y="1862" />
              <mxPoint x="1673" y="1862" />
              <mxPoint x="1673" y="1041" />
            </Array>
          </mxGeometry>
        </mxCell>
        <mxCell id="TcTSat4PmSnbktt4OF8P-226" value="" style="edgeStyle=elbowEdgeStyle;fontSize=12;html=1;endArrow=ERoneToMany;rounded=0;exitX=0;exitY=0.5;exitDx=0;exitDy=0;entryX=1;entryY=0.5;entryDx=0;entryDy=0;strokeWidth=4;" parent="1" source="TcTSat4PmSnbktt4OF8P-48" target="TcTSat4PmSnbktt4OF8P-64" edge="1">
          <mxGeometry width="100" height="100" relative="1" as="geometry">
            <mxPoint x="678.5621951219512" y="2408.1440983606553" as="sourcePoint" />
            <mxPoint x="813.2365853658534" y="2163.857213114754" as="targetPoint" />
          </mxGeometry>
        </mxCell>
        <mxCell id="TcTSat4PmSnbktt4OF8P-227" value="" style="edgeStyle=elbowEdgeStyle;fontSize=12;html=1;endArrow=ERoneToMany;rounded=0;entryX=0;entryY=0.333;entryDx=0;entryDy=0;entryPerimeter=0;exitX=1;exitY=0.5;exitDx=0;exitDy=0;strokeWidth=4;" parent="1" source="TcTSat4PmSnbktt4OF8P-48" target="TcTSat4PmSnbktt4OF8P-90" edge="1">
          <mxGeometry width="100" height="100" relative="1" as="geometry">
            <mxPoint x="705.4970731707317" y="2628.002295081967" as="sourcePoint" />
            <mxPoint x="840.171463414634" y="2383.715409836065" as="targetPoint" />
          </mxGeometry>
        </mxCell>
        <mxCell id="TcTSat4PmSnbktt4OF8P-228" value="" style="edgeStyle=orthogonalEdgeStyle;fontSize=12;html=1;endArrow=ERoneToMany;rounded=0;entryX=1;entryY=0.5;entryDx=0;entryDy=0;exitX=0;exitY=0.5;exitDx=0;exitDy=0;strokeWidth=4;" parent="1" source="TcTSat4PmSnbktt4OF8P-135" target="TcTSat4PmSnbktt4OF8P-93" edge="1">
          <mxGeometry width="100" height="100" relative="1" as="geometry">
            <mxPoint x="705.4970731707317" y="2628.002295081967" as="sourcePoint" />
            <mxPoint x="840.171463414634" y="2383.715409836065" as="targetPoint" />
            <Array as="points">
              <mxPoint x="1853" y="2200" />
              <mxPoint x="1853" y="1967" />
              <mxPoint x="1650" y="1967" />
              <mxPoint x="1650" y="1659" />
            </Array>
          </mxGeometry>
        </mxCell>
        <mxCell id="TcTSat4PmSnbktt4OF8P-234" value="" style="edgeStyle=elbowEdgeStyle;fontSize=12;html=1;endArrow=ERoneToMany;rounded=0;entryX=1;entryY=0.5;entryDx=0;entryDy=0;exitX=0;exitY=0.5;exitDx=0;exitDy=0;strokeWidth=4;" parent="1" source="TcTSat4PmSnbktt4OF8P-109" target="TcTSat4PmSnbktt4OF8P-96" edge="1">
          <mxGeometry width="100" height="100" relative="1" as="geometry">
            <mxPoint x="1455.633426829268" y="2249.3576229508194" as="sourcePoint" />
            <mxPoint x="2021.2658658536582" y="2603.573606557377" as="targetPoint" />
          </mxGeometry>
        </mxCell>
        <mxCell id="GIIiyJkMg5PodOhUIfZh-2" style="edgeStyle=elbowEdgeStyle;rounded=0;orthogonalLoop=1;jettySize=auto;html=1;exitX=0;exitY=0.5;exitDx=0;exitDy=0;" edge="1" parent="1" source="TcTSat4PmSnbktt4OF8P-182" target="bOlvTl43doBLw3R69mOg-1">
          <mxGeometry relative="1" as="geometry" />
        </mxCell>
      </root>
    </mxGraphModel>
  </diagram>
</mxfile>
